%TF.GenerationSoftware,KiCad,Pcbnew,(5.1.8)-1*%
%TF.CreationDate,2021-11-24T15:46:35-08:00*%
%TF.ProjectId,ISP_SMT_Pogo_6p,4953505f-534d-4545-9f50-6f676f5f3670,rev?*%
%TF.SameCoordinates,Original*%
%TF.FileFunction,Copper,L1,Top*%
%TF.FilePolarity,Positive*%
%FSLAX46Y46*%
G04 Gerber Fmt 4.6, Leading zero omitted, Abs format (unit mm)*
G04 Created by KiCad (PCBNEW (5.1.8)-1) date 2021-11-24 15:46:35*
%MOMM*%
%LPD*%
G01*
G04 APERTURE LIST*
%TA.AperFunction,ComponentPad*%
%ADD10C,2.032000*%
%TD*%
%TA.AperFunction,ComponentPad*%
%ADD11C,1.700000*%
%TD*%
%TA.AperFunction,ComponentPad*%
%ADD12C,5.334000*%
%TD*%
%TA.AperFunction,Conductor*%
%ADD13C,0.250000*%
%TD*%
%TA.AperFunction,Conductor*%
%ADD14C,0.254000*%
%TD*%
%TA.AperFunction,Conductor*%
%ADD15C,0.100000*%
%TD*%
G04 APERTURE END LIST*
D10*
%TO.P,J2,6*%
%TO.N,/GND*%
X144018000Y-81661000D03*
%TO.P,J2,4*%
%TO.N,/MOSI*%
X144018000Y-79121000D03*
%TO.P,J2,5*%
%TO.N,/RST*%
X136398000Y-81661000D03*
%TO.P,J2,3*%
%TO.N,/SCK*%
X136398000Y-79121000D03*
%TO.P,J2,1*%
%TO.N,/MISO*%
X136398000Y-76581000D03*
%TO.P,J2,2*%
%TO.N,/VCC*%
X144018000Y-76581000D03*
%TD*%
D11*
%TO.P,J1,6*%
%TO.N,/GND*%
X141478000Y-80645000D03*
%TO.P,J1,4*%
%TO.N,/MOSI*%
X141478000Y-78105000D03*
%TO.P,J1,2*%
%TO.N,/VCC*%
X141478000Y-75565000D03*
%TO.P,J1,5*%
%TO.N,/RST*%
X138938000Y-80645000D03*
%TO.P,J1,3*%
%TO.N,/SCK*%
X138938000Y-78105000D03*
%TO.P,J1,1*%
%TO.N,/MISO*%
%TA.AperFunction,ComponentPad*%
G36*
G01*
X138088000Y-76165000D02*
X138088000Y-74965000D01*
G75*
G02*
X138338000Y-74715000I250000J0D01*
G01*
X139538000Y-74715000D01*
G75*
G02*
X139788000Y-74965000I0J-250000D01*
G01*
X139788000Y-76165000D01*
G75*
G02*
X139538000Y-76415000I-250000J0D01*
G01*
X138338000Y-76415000D01*
G75*
G02*
X138088000Y-76165000I0J250000D01*
G01*
G37*
%TD.AperFunction*%
%TD*%
D12*
%TO.P,H2,2*%
%TO.N,/GND*%
X140208000Y-88646000D03*
%TD*%
%TO.P,H1,1*%
%TO.N,/GND*%
X140208000Y-67564000D03*
%TD*%
D13*
%TO.N,/MOSI*%
X142494000Y-79121000D02*
X141478000Y-78105000D01*
X144018000Y-79121000D02*
X142494000Y-79121000D01*
%TO.N,/RST*%
X137922000Y-81661000D02*
X138938000Y-80645000D01*
X136398000Y-81661000D02*
X137922000Y-81661000D01*
%TO.N,/SCK*%
X137922000Y-79121000D02*
X138938000Y-78105000D01*
X136398000Y-79121000D02*
X137922000Y-79121000D01*
%TO.N,/MISO*%
X137922000Y-76581000D02*
X138938000Y-75565000D01*
X136398000Y-76581000D02*
X137922000Y-76581000D01*
%TO.N,/VCC*%
X142494000Y-76581000D02*
X141478000Y-75565000D01*
X144018000Y-76581000D02*
X142494000Y-76581000D01*
%TD*%
D14*
%TO.N,/GND*%
X138065698Y-65242093D02*
X140208000Y-67384395D01*
X142350302Y-65242093D01*
X142218836Y-65049000D01*
X148946000Y-65049000D01*
X148946001Y-91288000D01*
X142132369Y-91288000D01*
X142350302Y-90967907D01*
X140208000Y-88825605D01*
X138065698Y-90967907D01*
X138283631Y-91288000D01*
X131470000Y-91288000D01*
X131470000Y-88642734D01*
X136890024Y-88642734D01*
X136953140Y-89290101D01*
X137141339Y-89912717D01*
X137447389Y-90486654D01*
X137451018Y-90492084D01*
X137886093Y-90788302D01*
X140028395Y-88646000D01*
X140387605Y-88646000D01*
X142529907Y-90788302D01*
X142964982Y-90492084D01*
X143272160Y-89918752D01*
X143461585Y-89296509D01*
X143525976Y-88649266D01*
X143462860Y-88001899D01*
X143274661Y-87379283D01*
X142968611Y-86805346D01*
X142964982Y-86799916D01*
X142529907Y-86503698D01*
X140387605Y-88646000D01*
X140028395Y-88646000D01*
X137886093Y-86503698D01*
X137451018Y-86799916D01*
X137143840Y-87373248D01*
X136954415Y-87995491D01*
X136890024Y-88642734D01*
X131470000Y-88642734D01*
X131470000Y-86324093D01*
X138065698Y-86324093D01*
X140208000Y-88466395D01*
X142350302Y-86324093D01*
X142054084Y-85889018D01*
X141480752Y-85581840D01*
X140858509Y-85392415D01*
X140211266Y-85328024D01*
X139563899Y-85391140D01*
X138941283Y-85579339D01*
X138367346Y-85885389D01*
X138361916Y-85889018D01*
X138065698Y-86324093D01*
X131470000Y-86324093D01*
X131470000Y-76418391D01*
X134747000Y-76418391D01*
X134747000Y-76743609D01*
X134810447Y-77062579D01*
X134934903Y-77363042D01*
X135115585Y-77633451D01*
X135333134Y-77851000D01*
X135115585Y-78068549D01*
X134934903Y-78338958D01*
X134810447Y-78639421D01*
X134747000Y-78958391D01*
X134747000Y-79283609D01*
X134810447Y-79602579D01*
X134934903Y-79903042D01*
X135115585Y-80173451D01*
X135333134Y-80391000D01*
X135115585Y-80608549D01*
X134934903Y-80878958D01*
X134810447Y-81179421D01*
X134747000Y-81498391D01*
X134747000Y-81823609D01*
X134810447Y-82142579D01*
X134934903Y-82443042D01*
X135115585Y-82713451D01*
X135345549Y-82943415D01*
X135615958Y-83124097D01*
X135916421Y-83248553D01*
X136235391Y-83312000D01*
X136560609Y-83312000D01*
X136879579Y-83248553D01*
X137180042Y-83124097D01*
X137450451Y-82943415D01*
X137586043Y-82807823D01*
X143050782Y-82807823D01*
X143148478Y-83073860D01*
X143440821Y-83216348D01*
X143755344Y-83299064D01*
X144079962Y-83318831D01*
X144402198Y-83274888D01*
X144709670Y-83168924D01*
X144887522Y-83073860D01*
X144985218Y-82807823D01*
X144018000Y-81840605D01*
X143050782Y-82807823D01*
X137586043Y-82807823D01*
X137680415Y-82713451D01*
X137861097Y-82443042D01*
X137870227Y-82421000D01*
X137884678Y-82421000D01*
X137922000Y-82424676D01*
X137959322Y-82421000D01*
X137959333Y-82421000D01*
X138070986Y-82410003D01*
X138214247Y-82366546D01*
X138346276Y-82295974D01*
X138462001Y-82201001D01*
X138485804Y-82171998D01*
X138571592Y-82086209D01*
X138791740Y-82130000D01*
X139084260Y-82130000D01*
X139371158Y-82072932D01*
X139641411Y-81960990D01*
X139884632Y-81798475D01*
X140091475Y-81591632D01*
X140207311Y-81418271D01*
X140449603Y-81493792D01*
X141298395Y-80645000D01*
X140449603Y-79796208D01*
X140207311Y-79871729D01*
X140091475Y-79698368D01*
X139884632Y-79491525D01*
X139710240Y-79375000D01*
X139884632Y-79258475D01*
X140091475Y-79051632D01*
X140208000Y-78877240D01*
X140324525Y-79051632D01*
X140531368Y-79258475D01*
X140704729Y-79374311D01*
X140629208Y-79616603D01*
X141478000Y-80465395D01*
X141492143Y-80451253D01*
X141671748Y-80630858D01*
X141657605Y-80645000D01*
X141671748Y-80659143D01*
X141492143Y-80838748D01*
X141478000Y-80824605D01*
X140629208Y-81673397D01*
X140706843Y-81922472D01*
X140970883Y-82048371D01*
X141254411Y-82120339D01*
X141546531Y-82135611D01*
X141836019Y-82093599D01*
X142111747Y-81995919D01*
X142249157Y-81922472D01*
X142326791Y-81673399D01*
X142361098Y-81707706D01*
X142360169Y-81722962D01*
X142404112Y-82045198D01*
X142510076Y-82352670D01*
X142605140Y-82530522D01*
X142871177Y-82628218D01*
X143838395Y-81661000D01*
X144197605Y-81661000D01*
X145164823Y-82628218D01*
X145430860Y-82530522D01*
X145573348Y-82238179D01*
X145656064Y-81923656D01*
X145675831Y-81599038D01*
X145631888Y-81276802D01*
X145525924Y-80969330D01*
X145430860Y-80791478D01*
X145164823Y-80693782D01*
X144197605Y-81661000D01*
X143838395Y-81661000D01*
X143824253Y-81646858D01*
X144003858Y-81467253D01*
X144018000Y-81481395D01*
X144985218Y-80514177D01*
X144969351Y-80470968D01*
X145070451Y-80403415D01*
X145300415Y-80173451D01*
X145481097Y-79903042D01*
X145605553Y-79602579D01*
X145669000Y-79283609D01*
X145669000Y-78958391D01*
X145605553Y-78639421D01*
X145481097Y-78338958D01*
X145300415Y-78068549D01*
X145082866Y-77851000D01*
X145300415Y-77633451D01*
X145481097Y-77363042D01*
X145605553Y-77062579D01*
X145669000Y-76743609D01*
X145669000Y-76418391D01*
X145605553Y-76099421D01*
X145481097Y-75798958D01*
X145300415Y-75528549D01*
X145070451Y-75298585D01*
X144800042Y-75117903D01*
X144499579Y-74993447D01*
X144180609Y-74930000D01*
X143855391Y-74930000D01*
X143536421Y-74993447D01*
X143235958Y-75117903D01*
X142965549Y-75298585D01*
X142943488Y-75320646D01*
X142905932Y-75131842D01*
X142793990Y-74861589D01*
X142631475Y-74618368D01*
X142424632Y-74411525D01*
X142181411Y-74249010D01*
X141911158Y-74137068D01*
X141624260Y-74080000D01*
X141331740Y-74080000D01*
X141044842Y-74137068D01*
X140774589Y-74249010D01*
X140531368Y-74411525D01*
X140344285Y-74598608D01*
X140276405Y-74471614D01*
X140165962Y-74337038D01*
X140031386Y-74226595D01*
X139877850Y-74144528D01*
X139711254Y-74093992D01*
X139538000Y-74076928D01*
X138338000Y-74076928D01*
X138164746Y-74093992D01*
X137998150Y-74144528D01*
X137844614Y-74226595D01*
X137710038Y-74337038D01*
X137599595Y-74471614D01*
X137517528Y-74625150D01*
X137466992Y-74791746D01*
X137449928Y-74965000D01*
X137449928Y-75298236D01*
X137180042Y-75117903D01*
X136879579Y-74993447D01*
X136560609Y-74930000D01*
X136235391Y-74930000D01*
X135916421Y-74993447D01*
X135615958Y-75117903D01*
X135345549Y-75298585D01*
X135115585Y-75528549D01*
X134934903Y-75798958D01*
X134810447Y-76099421D01*
X134747000Y-76418391D01*
X131470000Y-76418391D01*
X131470000Y-69885907D01*
X138065698Y-69885907D01*
X138361916Y-70320982D01*
X138935248Y-70628160D01*
X139557491Y-70817585D01*
X140204734Y-70881976D01*
X140852101Y-70818860D01*
X141474717Y-70630661D01*
X142048654Y-70324611D01*
X142054084Y-70320982D01*
X142350302Y-69885907D01*
X140208000Y-67743605D01*
X138065698Y-69885907D01*
X131470000Y-69885907D01*
X131470000Y-69133486D01*
X133267431Y-67560734D01*
X136890024Y-67560734D01*
X136953140Y-68208101D01*
X137141339Y-68830717D01*
X137447389Y-69404654D01*
X137451018Y-69410084D01*
X137886093Y-69706302D01*
X140028395Y-67564000D01*
X140387605Y-67564000D01*
X142529907Y-69706302D01*
X142964982Y-69410084D01*
X143272160Y-68836752D01*
X143461585Y-68214509D01*
X143525976Y-67567266D01*
X143462860Y-66919899D01*
X143274661Y-66297283D01*
X142968611Y-65723346D01*
X142964982Y-65717916D01*
X142529907Y-65421698D01*
X140387605Y-67564000D01*
X140028395Y-67564000D01*
X137886093Y-65421698D01*
X137451018Y-65717916D01*
X137143840Y-66291248D01*
X136954415Y-66913491D01*
X136890024Y-67560734D01*
X133267431Y-67560734D01*
X136137986Y-65049000D01*
X138197164Y-65049000D01*
X138065698Y-65242093D01*
%TA.AperFunction,Conductor*%
D15*
G36*
X138065698Y-65242093D02*
G01*
X140208000Y-67384395D01*
X142350302Y-65242093D01*
X142218836Y-65049000D01*
X148946000Y-65049000D01*
X148946001Y-91288000D01*
X142132369Y-91288000D01*
X142350302Y-90967907D01*
X140208000Y-88825605D01*
X138065698Y-90967907D01*
X138283631Y-91288000D01*
X131470000Y-91288000D01*
X131470000Y-88642734D01*
X136890024Y-88642734D01*
X136953140Y-89290101D01*
X137141339Y-89912717D01*
X137447389Y-90486654D01*
X137451018Y-90492084D01*
X137886093Y-90788302D01*
X140028395Y-88646000D01*
X140387605Y-88646000D01*
X142529907Y-90788302D01*
X142964982Y-90492084D01*
X143272160Y-89918752D01*
X143461585Y-89296509D01*
X143525976Y-88649266D01*
X143462860Y-88001899D01*
X143274661Y-87379283D01*
X142968611Y-86805346D01*
X142964982Y-86799916D01*
X142529907Y-86503698D01*
X140387605Y-88646000D01*
X140028395Y-88646000D01*
X137886093Y-86503698D01*
X137451018Y-86799916D01*
X137143840Y-87373248D01*
X136954415Y-87995491D01*
X136890024Y-88642734D01*
X131470000Y-88642734D01*
X131470000Y-86324093D01*
X138065698Y-86324093D01*
X140208000Y-88466395D01*
X142350302Y-86324093D01*
X142054084Y-85889018D01*
X141480752Y-85581840D01*
X140858509Y-85392415D01*
X140211266Y-85328024D01*
X139563899Y-85391140D01*
X138941283Y-85579339D01*
X138367346Y-85885389D01*
X138361916Y-85889018D01*
X138065698Y-86324093D01*
X131470000Y-86324093D01*
X131470000Y-76418391D01*
X134747000Y-76418391D01*
X134747000Y-76743609D01*
X134810447Y-77062579D01*
X134934903Y-77363042D01*
X135115585Y-77633451D01*
X135333134Y-77851000D01*
X135115585Y-78068549D01*
X134934903Y-78338958D01*
X134810447Y-78639421D01*
X134747000Y-78958391D01*
X134747000Y-79283609D01*
X134810447Y-79602579D01*
X134934903Y-79903042D01*
X135115585Y-80173451D01*
X135333134Y-80391000D01*
X135115585Y-80608549D01*
X134934903Y-80878958D01*
X134810447Y-81179421D01*
X134747000Y-81498391D01*
X134747000Y-81823609D01*
X134810447Y-82142579D01*
X134934903Y-82443042D01*
X135115585Y-82713451D01*
X135345549Y-82943415D01*
X135615958Y-83124097D01*
X135916421Y-83248553D01*
X136235391Y-83312000D01*
X136560609Y-83312000D01*
X136879579Y-83248553D01*
X137180042Y-83124097D01*
X137450451Y-82943415D01*
X137586043Y-82807823D01*
X143050782Y-82807823D01*
X143148478Y-83073860D01*
X143440821Y-83216348D01*
X143755344Y-83299064D01*
X144079962Y-83318831D01*
X144402198Y-83274888D01*
X144709670Y-83168924D01*
X144887522Y-83073860D01*
X144985218Y-82807823D01*
X144018000Y-81840605D01*
X143050782Y-82807823D01*
X137586043Y-82807823D01*
X137680415Y-82713451D01*
X137861097Y-82443042D01*
X137870227Y-82421000D01*
X137884678Y-82421000D01*
X137922000Y-82424676D01*
X137959322Y-82421000D01*
X137959333Y-82421000D01*
X138070986Y-82410003D01*
X138214247Y-82366546D01*
X138346276Y-82295974D01*
X138462001Y-82201001D01*
X138485804Y-82171998D01*
X138571592Y-82086209D01*
X138791740Y-82130000D01*
X139084260Y-82130000D01*
X139371158Y-82072932D01*
X139641411Y-81960990D01*
X139884632Y-81798475D01*
X140091475Y-81591632D01*
X140207311Y-81418271D01*
X140449603Y-81493792D01*
X141298395Y-80645000D01*
X140449603Y-79796208D01*
X140207311Y-79871729D01*
X140091475Y-79698368D01*
X139884632Y-79491525D01*
X139710240Y-79375000D01*
X139884632Y-79258475D01*
X140091475Y-79051632D01*
X140208000Y-78877240D01*
X140324525Y-79051632D01*
X140531368Y-79258475D01*
X140704729Y-79374311D01*
X140629208Y-79616603D01*
X141478000Y-80465395D01*
X141492143Y-80451253D01*
X141671748Y-80630858D01*
X141657605Y-80645000D01*
X141671748Y-80659143D01*
X141492143Y-80838748D01*
X141478000Y-80824605D01*
X140629208Y-81673397D01*
X140706843Y-81922472D01*
X140970883Y-82048371D01*
X141254411Y-82120339D01*
X141546531Y-82135611D01*
X141836019Y-82093599D01*
X142111747Y-81995919D01*
X142249157Y-81922472D01*
X142326791Y-81673399D01*
X142361098Y-81707706D01*
X142360169Y-81722962D01*
X142404112Y-82045198D01*
X142510076Y-82352670D01*
X142605140Y-82530522D01*
X142871177Y-82628218D01*
X143838395Y-81661000D01*
X144197605Y-81661000D01*
X145164823Y-82628218D01*
X145430860Y-82530522D01*
X145573348Y-82238179D01*
X145656064Y-81923656D01*
X145675831Y-81599038D01*
X145631888Y-81276802D01*
X145525924Y-80969330D01*
X145430860Y-80791478D01*
X145164823Y-80693782D01*
X144197605Y-81661000D01*
X143838395Y-81661000D01*
X143824253Y-81646858D01*
X144003858Y-81467253D01*
X144018000Y-81481395D01*
X144985218Y-80514177D01*
X144969351Y-80470968D01*
X145070451Y-80403415D01*
X145300415Y-80173451D01*
X145481097Y-79903042D01*
X145605553Y-79602579D01*
X145669000Y-79283609D01*
X145669000Y-78958391D01*
X145605553Y-78639421D01*
X145481097Y-78338958D01*
X145300415Y-78068549D01*
X145082866Y-77851000D01*
X145300415Y-77633451D01*
X145481097Y-77363042D01*
X145605553Y-77062579D01*
X145669000Y-76743609D01*
X145669000Y-76418391D01*
X145605553Y-76099421D01*
X145481097Y-75798958D01*
X145300415Y-75528549D01*
X145070451Y-75298585D01*
X144800042Y-75117903D01*
X144499579Y-74993447D01*
X144180609Y-74930000D01*
X143855391Y-74930000D01*
X143536421Y-74993447D01*
X143235958Y-75117903D01*
X142965549Y-75298585D01*
X142943488Y-75320646D01*
X142905932Y-75131842D01*
X142793990Y-74861589D01*
X142631475Y-74618368D01*
X142424632Y-74411525D01*
X142181411Y-74249010D01*
X141911158Y-74137068D01*
X141624260Y-74080000D01*
X141331740Y-74080000D01*
X141044842Y-74137068D01*
X140774589Y-74249010D01*
X140531368Y-74411525D01*
X140344285Y-74598608D01*
X140276405Y-74471614D01*
X140165962Y-74337038D01*
X140031386Y-74226595D01*
X139877850Y-74144528D01*
X139711254Y-74093992D01*
X139538000Y-74076928D01*
X138338000Y-74076928D01*
X138164746Y-74093992D01*
X137998150Y-74144528D01*
X137844614Y-74226595D01*
X137710038Y-74337038D01*
X137599595Y-74471614D01*
X137517528Y-74625150D01*
X137466992Y-74791746D01*
X137449928Y-74965000D01*
X137449928Y-75298236D01*
X137180042Y-75117903D01*
X136879579Y-74993447D01*
X136560609Y-74930000D01*
X136235391Y-74930000D01*
X135916421Y-74993447D01*
X135615958Y-75117903D01*
X135345549Y-75298585D01*
X135115585Y-75528549D01*
X134934903Y-75798958D01*
X134810447Y-76099421D01*
X134747000Y-76418391D01*
X131470000Y-76418391D01*
X131470000Y-69885907D01*
X138065698Y-69885907D01*
X138361916Y-70320982D01*
X138935248Y-70628160D01*
X139557491Y-70817585D01*
X140204734Y-70881976D01*
X140852101Y-70818860D01*
X141474717Y-70630661D01*
X142048654Y-70324611D01*
X142054084Y-70320982D01*
X142350302Y-69885907D01*
X140208000Y-67743605D01*
X138065698Y-69885907D01*
X131470000Y-69885907D01*
X131470000Y-69133486D01*
X133267431Y-67560734D01*
X136890024Y-67560734D01*
X136953140Y-68208101D01*
X137141339Y-68830717D01*
X137447389Y-69404654D01*
X137451018Y-69410084D01*
X137886093Y-69706302D01*
X140028395Y-67564000D01*
X140387605Y-67564000D01*
X142529907Y-69706302D01*
X142964982Y-69410084D01*
X143272160Y-68836752D01*
X143461585Y-68214509D01*
X143525976Y-67567266D01*
X143462860Y-66919899D01*
X143274661Y-66297283D01*
X142968611Y-65723346D01*
X142964982Y-65717916D01*
X142529907Y-65421698D01*
X140387605Y-67564000D01*
X140028395Y-67564000D01*
X137886093Y-65421698D01*
X137451018Y-65717916D01*
X137143840Y-66291248D01*
X136954415Y-66913491D01*
X136890024Y-67560734D01*
X133267431Y-67560734D01*
X136137986Y-65049000D01*
X138197164Y-65049000D01*
X138065698Y-65242093D01*
G37*
%TD.AperFunction*%
%TD*%
M02*
