%TF.GenerationSoftware,KiCad,Pcbnew,(5.1.8)-1*%
%TF.CreationDate,2021-11-24T15:46:35-08:00*%
%TF.ProjectId,ISP_SMT_Pogo_6p,4953505f-534d-4545-9f50-6f676f5f3670,rev?*%
%TF.SameCoordinates,Original*%
%TF.FileFunction,Legend,Bot*%
%TF.FilePolarity,Positive*%
%FSLAX46Y46*%
G04 Gerber Fmt 4.6, Leading zero omitted, Abs format (unit mm)*
G04 Created by KiCad (PCBNEW (5.1.8)-1) date 2021-11-24 15:46:35*
%MOMM*%
%LPD*%
G01*
G04 APERTURE LIST*
%ADD10C,0.150000*%
%ADD11C,0.010000*%
G04 APERTURE END LIST*
D10*
X147296190Y-74097142D02*
X147248571Y-74049523D01*
X147200952Y-73954285D01*
X147200952Y-73859047D01*
X147248571Y-73763809D01*
X147296190Y-73716190D01*
X147391428Y-73668571D01*
X147486666Y-73668571D01*
X147581904Y-73716190D01*
X147629523Y-73763809D01*
X147677142Y-73859047D01*
X147677142Y-73954285D01*
X147629523Y-74049523D01*
X147581904Y-74097142D01*
X147200952Y-74097142D02*
X147581904Y-74097142D01*
X147629523Y-74144761D01*
X147629523Y-74192380D01*
X147581904Y-74287619D01*
X147486666Y-74335238D01*
X147248571Y-74335238D01*
X147105714Y-74240000D01*
X147010476Y-74097142D01*
X146962857Y-73906666D01*
X147010476Y-73716190D01*
X147105714Y-73573333D01*
X147248571Y-73478095D01*
X147439047Y-73430476D01*
X147629523Y-73478095D01*
X147772380Y-73573333D01*
X147867619Y-73716190D01*
X147915238Y-73906666D01*
X147867619Y-74097142D01*
X147772380Y-74240000D01*
X147486666Y-74716190D02*
X147486666Y-75192380D01*
X147772380Y-74620952D02*
X146772380Y-74954285D01*
X147772380Y-75287619D01*
X147772380Y-75763809D02*
X147724761Y-75668571D01*
X147629523Y-75620952D01*
X146772380Y-75620952D01*
X147105714Y-76144761D02*
X148105714Y-76144761D01*
X147153333Y-76144761D02*
X147105714Y-76240000D01*
X147105714Y-76430476D01*
X147153333Y-76525714D01*
X147200952Y-76573333D01*
X147296190Y-76620952D01*
X147581904Y-76620952D01*
X147677142Y-76573333D01*
X147724761Y-76525714D01*
X147772380Y-76430476D01*
X147772380Y-76240000D01*
X147724761Y-76144761D01*
X147724761Y-77430476D02*
X147772380Y-77335238D01*
X147772380Y-77144761D01*
X147724761Y-77049523D01*
X147629523Y-77001904D01*
X147248571Y-77001904D01*
X147153333Y-77049523D01*
X147105714Y-77144761D01*
X147105714Y-77335238D01*
X147153333Y-77430476D01*
X147248571Y-77478095D01*
X147343809Y-77478095D01*
X147439047Y-77001904D01*
X147105714Y-77906666D02*
X147772380Y-77906666D01*
X147200952Y-77906666D02*
X147153333Y-77954285D01*
X147105714Y-78049523D01*
X147105714Y-78192380D01*
X147153333Y-78287619D01*
X147248571Y-78335238D01*
X147772380Y-78335238D01*
X147105714Y-79240000D02*
X147915238Y-79240000D01*
X148010476Y-79192380D01*
X148058095Y-79144761D01*
X148105714Y-79049523D01*
X148105714Y-78906666D01*
X148058095Y-78811428D01*
X147724761Y-79240000D02*
X147772380Y-79144761D01*
X147772380Y-78954285D01*
X147724761Y-78859047D01*
X147677142Y-78811428D01*
X147581904Y-78763809D01*
X147296190Y-78763809D01*
X147200952Y-78811428D01*
X147153333Y-78859047D01*
X147105714Y-78954285D01*
X147105714Y-79144761D01*
X147153333Y-79240000D01*
X147772380Y-79859047D02*
X147724761Y-79763809D01*
X147629523Y-79716190D01*
X146772380Y-79716190D01*
X147772380Y-80382857D02*
X147724761Y-80287619D01*
X147677142Y-80240000D01*
X147581904Y-80192380D01*
X147296190Y-80192380D01*
X147200952Y-80240000D01*
X147153333Y-80287619D01*
X147105714Y-80382857D01*
X147105714Y-80525714D01*
X147153333Y-80620952D01*
X147200952Y-80668571D01*
X147296190Y-80716190D01*
X147581904Y-80716190D01*
X147677142Y-80668571D01*
X147724761Y-80620952D01*
X147772380Y-80525714D01*
X147772380Y-80382857D01*
X147105714Y-81049523D02*
X147772380Y-81240000D01*
X147296190Y-81430476D01*
X147772380Y-81620952D01*
X147105714Y-81811428D01*
X147772380Y-82192380D02*
X146772380Y-82192380D01*
X147105714Y-82668571D02*
X147772380Y-82668571D01*
X147200952Y-82668571D02*
X147153333Y-82716190D01*
X147105714Y-82811428D01*
X147105714Y-82954285D01*
X147153333Y-83049523D01*
X147248571Y-83097142D01*
X147772380Y-83097142D01*
X147772380Y-84001904D02*
X146772380Y-84001904D01*
X147724761Y-84001904D02*
X147772380Y-83906666D01*
X147772380Y-83716190D01*
X147724761Y-83620952D01*
X147677142Y-83573333D01*
X147581904Y-83525714D01*
X147296190Y-83525714D01*
X147200952Y-83573333D01*
X147153333Y-83620952D01*
X147105714Y-83716190D01*
X147105714Y-83906666D01*
X147153333Y-84001904D01*
X133802380Y-73978095D02*
X132802380Y-73978095D01*
X133754761Y-74406666D02*
X133802380Y-74549523D01*
X133802380Y-74787619D01*
X133754761Y-74882857D01*
X133707142Y-74930476D01*
X133611904Y-74978095D01*
X133516666Y-74978095D01*
X133421428Y-74930476D01*
X133373809Y-74882857D01*
X133326190Y-74787619D01*
X133278571Y-74597142D01*
X133230952Y-74501904D01*
X133183333Y-74454285D01*
X133088095Y-74406666D01*
X132992857Y-74406666D01*
X132897619Y-74454285D01*
X132850000Y-74501904D01*
X132802380Y-74597142D01*
X132802380Y-74835238D01*
X132850000Y-74978095D01*
X133802380Y-75406666D02*
X132802380Y-75406666D01*
X132802380Y-75787619D01*
X132850000Y-75882857D01*
X132897619Y-75930476D01*
X132992857Y-75978095D01*
X133135714Y-75978095D01*
X133230952Y-75930476D01*
X133278571Y-75882857D01*
X133326190Y-75787619D01*
X133326190Y-75406666D01*
X133802380Y-77168571D02*
X132802380Y-77168571D01*
X132802380Y-77549523D01*
X132850000Y-77644761D01*
X132897619Y-77692380D01*
X132992857Y-77740000D01*
X133135714Y-77740000D01*
X133230952Y-77692380D01*
X133278571Y-77644761D01*
X133326190Y-77549523D01*
X133326190Y-77168571D01*
X132802380Y-78359047D02*
X132802380Y-78549523D01*
X132850000Y-78644761D01*
X132945238Y-78740000D01*
X133135714Y-78787619D01*
X133469047Y-78787619D01*
X133659523Y-78740000D01*
X133754761Y-78644761D01*
X133802380Y-78549523D01*
X133802380Y-78359047D01*
X133754761Y-78263809D01*
X133659523Y-78168571D01*
X133469047Y-78120952D01*
X133135714Y-78120952D01*
X132945238Y-78168571D01*
X132850000Y-78263809D01*
X132802380Y-78359047D01*
X132850000Y-79740000D02*
X132802380Y-79644761D01*
X132802380Y-79501904D01*
X132850000Y-79359047D01*
X132945238Y-79263809D01*
X133040476Y-79216190D01*
X133230952Y-79168571D01*
X133373809Y-79168571D01*
X133564285Y-79216190D01*
X133659523Y-79263809D01*
X133754761Y-79359047D01*
X133802380Y-79501904D01*
X133802380Y-79597142D01*
X133754761Y-79740000D01*
X133707142Y-79787619D01*
X133373809Y-79787619D01*
X133373809Y-79597142D01*
X132802380Y-80406666D02*
X132802380Y-80597142D01*
X132850000Y-80692380D01*
X132945238Y-80787619D01*
X133135714Y-80835238D01*
X133469047Y-80835238D01*
X133659523Y-80787619D01*
X133754761Y-80692380D01*
X133802380Y-80597142D01*
X133802380Y-80406666D01*
X133754761Y-80311428D01*
X133659523Y-80216190D01*
X133469047Y-80168571D01*
X133135714Y-80168571D01*
X132945238Y-80216190D01*
X132850000Y-80311428D01*
X132802380Y-80406666D01*
X132802380Y-82454285D02*
X132802380Y-82263809D01*
X132850000Y-82168571D01*
X132897619Y-82120952D01*
X133040476Y-82025714D01*
X133230952Y-81978095D01*
X133611904Y-81978095D01*
X133707142Y-82025714D01*
X133754761Y-82073333D01*
X133802380Y-82168571D01*
X133802380Y-82359047D01*
X133754761Y-82454285D01*
X133707142Y-82501904D01*
X133611904Y-82549523D01*
X133373809Y-82549523D01*
X133278571Y-82501904D01*
X133230952Y-82454285D01*
X133183333Y-82359047D01*
X133183333Y-82168571D01*
X133230952Y-82073333D01*
X133278571Y-82025714D01*
X133373809Y-81978095D01*
X133802380Y-82978095D02*
X132802380Y-82978095D01*
X132802380Y-83359047D01*
X132850000Y-83454285D01*
X132897619Y-83501904D01*
X132992857Y-83549523D01*
X133135714Y-83549523D01*
X133230952Y-83501904D01*
X133278571Y-83454285D01*
X133326190Y-83359047D01*
X133326190Y-82978095D01*
D11*
%TO.C,G\u002A\u002A\u002A*%
G36*
X144351940Y-70477978D02*
G01*
X144380859Y-70484666D01*
X144423408Y-70492579D01*
X144466749Y-70499536D01*
X144526973Y-70507919D01*
X144573388Y-70512059D01*
X144614870Y-70512035D01*
X144660296Y-70507924D01*
X144706318Y-70501613D01*
X144767880Y-70492502D01*
X144809666Y-70485981D01*
X144834746Y-70481305D01*
X144846192Y-70477730D01*
X144847075Y-70474509D01*
X144840468Y-70470898D01*
X144837727Y-70469730D01*
X144819332Y-70465182D01*
X144783893Y-70458869D01*
X144737288Y-70451781D01*
X144705792Y-70447487D01*
X144645716Y-70440742D01*
X144595404Y-70438364D01*
X144544896Y-70440433D01*
X144484228Y-70447027D01*
X144466223Y-70449403D01*
X144415806Y-70456823D01*
X144375129Y-70463983D01*
X144348839Y-70469988D01*
X144341272Y-70473474D01*
X144351940Y-70477978D01*
G37*
X144351940Y-70477978D02*
X144380859Y-70484666D01*
X144423408Y-70492579D01*
X144466749Y-70499536D01*
X144526973Y-70507919D01*
X144573388Y-70512059D01*
X144614870Y-70512035D01*
X144660296Y-70507924D01*
X144706318Y-70501613D01*
X144767880Y-70492502D01*
X144809666Y-70485981D01*
X144834746Y-70481305D01*
X144846192Y-70477730D01*
X144847075Y-70474509D01*
X144840468Y-70470898D01*
X144837727Y-70469730D01*
X144819332Y-70465182D01*
X144783893Y-70458869D01*
X144737288Y-70451781D01*
X144705792Y-70447487D01*
X144645716Y-70440742D01*
X144595404Y-70438364D01*
X144544896Y-70440433D01*
X144484228Y-70447027D01*
X144466223Y-70449403D01*
X144415806Y-70456823D01*
X144375129Y-70463983D01*
X144348839Y-70469988D01*
X144341272Y-70473474D01*
X144351940Y-70477978D01*
G36*
X144448879Y-70813356D02*
G01*
X144477918Y-70804443D01*
X144519167Y-70789916D01*
X144559002Y-70774827D01*
X144632140Y-70743429D01*
X144693929Y-70709263D01*
X144755799Y-70665777D01*
X144774206Y-70651424D01*
X144813983Y-70619565D01*
X144846019Y-70593263D01*
X144866612Y-70575600D01*
X144872363Y-70569728D01*
X144863163Y-70566459D01*
X144857931Y-70566404D01*
X144841575Y-70570780D01*
X144809273Y-70582079D01*
X144766401Y-70598362D01*
X144737231Y-70609964D01*
X144651488Y-70650396D01*
X144570537Y-70701739D01*
X144531155Y-70731385D01*
X144491518Y-70763341D01*
X144460334Y-70790026D01*
X144441064Y-70808374D01*
X144436651Y-70815137D01*
X144448879Y-70813356D01*
G37*
X144448879Y-70813356D02*
X144477918Y-70804443D01*
X144519167Y-70789916D01*
X144559002Y-70774827D01*
X144632140Y-70743429D01*
X144693929Y-70709263D01*
X144755799Y-70665777D01*
X144774206Y-70651424D01*
X144813983Y-70619565D01*
X144846019Y-70593263D01*
X144866612Y-70575600D01*
X144872363Y-70569728D01*
X144863163Y-70566459D01*
X144857931Y-70566404D01*
X144841575Y-70570780D01*
X144809273Y-70582079D01*
X144766401Y-70598362D01*
X144737231Y-70609964D01*
X144651488Y-70650396D01*
X144570537Y-70701739D01*
X144531155Y-70731385D01*
X144491518Y-70763341D01*
X144460334Y-70790026D01*
X144441064Y-70808374D01*
X144436651Y-70815137D01*
X144448879Y-70813356D01*
G36*
X144435549Y-70142024D02*
G01*
X144448149Y-70153188D01*
X144465297Y-70166426D01*
X144495419Y-70189717D01*
X144533231Y-70218976D01*
X144551265Y-70232937D01*
X144597309Y-70265974D01*
X144645232Y-70296133D01*
X144686546Y-70318180D01*
X144696345Y-70322415D01*
X144744262Y-70341436D01*
X144795202Y-70361661D01*
X144814636Y-70369377D01*
X144846397Y-70380509D01*
X144867364Y-70385021D01*
X144872363Y-70383388D01*
X144863771Y-70373163D01*
X144840457Y-70352191D01*
X144806112Y-70323658D01*
X144769735Y-70294853D01*
X144700916Y-70245190D01*
X144635739Y-70207279D01*
X144563347Y-70174896D01*
X144554116Y-70171264D01*
X144494632Y-70149208D01*
X144454840Y-70136948D01*
X144435044Y-70134536D01*
X144435549Y-70142024D01*
G37*
X144435549Y-70142024D02*
X144448149Y-70153188D01*
X144465297Y-70166426D01*
X144495419Y-70189717D01*
X144533231Y-70218976D01*
X144551265Y-70232937D01*
X144597309Y-70265974D01*
X144645232Y-70296133D01*
X144686546Y-70318180D01*
X144696345Y-70322415D01*
X144744262Y-70341436D01*
X144795202Y-70361661D01*
X144814636Y-70369377D01*
X144846397Y-70380509D01*
X144867364Y-70385021D01*
X144872363Y-70383388D01*
X144863771Y-70373163D01*
X144840457Y-70352191D01*
X144806112Y-70323658D01*
X144769735Y-70294853D01*
X144700916Y-70245190D01*
X144635739Y-70207279D01*
X144563347Y-70174896D01*
X144554116Y-70171264D01*
X144494632Y-70149208D01*
X144454840Y-70136948D01*
X144435044Y-70134536D01*
X144435549Y-70142024D01*
G36*
X144694139Y-71058448D02*
G01*
X144711823Y-71041751D01*
X144737952Y-71012365D01*
X144768274Y-70975092D01*
X144798117Y-70936117D01*
X144822677Y-70900949D01*
X144844265Y-70865166D01*
X144865194Y-70824341D01*
X144887775Y-70774053D01*
X144914320Y-70709875D01*
X144938396Y-70649523D01*
X144937906Y-70636514D01*
X144934212Y-70635116D01*
X144923377Y-70643650D01*
X144901910Y-70666684D01*
X144873231Y-70700393D01*
X144849748Y-70729494D01*
X144790556Y-70813488D01*
X144744758Y-70901026D01*
X144731407Y-70932617D01*
X144712888Y-70980354D01*
X144698250Y-71021362D01*
X144689393Y-71050127D01*
X144687636Y-71059588D01*
X144694139Y-71058448D01*
G37*
X144694139Y-71058448D02*
X144711823Y-71041751D01*
X144737952Y-71012365D01*
X144768274Y-70975092D01*
X144798117Y-70936117D01*
X144822677Y-70900949D01*
X144844265Y-70865166D01*
X144865194Y-70824341D01*
X144887775Y-70774053D01*
X144914320Y-70709875D01*
X144938396Y-70649523D01*
X144937906Y-70636514D01*
X144934212Y-70635116D01*
X144923377Y-70643650D01*
X144901910Y-70666684D01*
X144873231Y-70700393D01*
X144849748Y-70729494D01*
X144790556Y-70813488D01*
X144744758Y-70901026D01*
X144731407Y-70932617D01*
X144712888Y-70980354D01*
X144698250Y-71021362D01*
X144689393Y-71050127D01*
X144687636Y-71059588D01*
X144694139Y-71058448D01*
G36*
X144687284Y-69894531D02*
G01*
X144695152Y-69921394D01*
X144709390Y-69960998D01*
X144726472Y-70003969D01*
X144768510Y-70094041D01*
X144817446Y-70173996D01*
X144853897Y-70223333D01*
X144893972Y-70274232D01*
X144921276Y-70306967D01*
X144936503Y-70320987D01*
X144940347Y-70315741D01*
X144933505Y-70290678D01*
X144916670Y-70245247D01*
X144895176Y-70190591D01*
X144861592Y-70114407D01*
X144824223Y-70049335D01*
X144776254Y-69983594D01*
X144773302Y-69979887D01*
X144741086Y-69940682D01*
X144713607Y-69909312D01*
X144694283Y-69889557D01*
X144687179Y-69884637D01*
X144687284Y-69894531D01*
G37*
X144687284Y-69894531D02*
X144695152Y-69921394D01*
X144709390Y-69960998D01*
X144726472Y-70003969D01*
X144768510Y-70094041D01*
X144817446Y-70173996D01*
X144853897Y-70223333D01*
X144893972Y-70274232D01*
X144921276Y-70306967D01*
X144936503Y-70320987D01*
X144940347Y-70315741D01*
X144933505Y-70290678D01*
X144916670Y-70245247D01*
X144895176Y-70190591D01*
X144861592Y-70114407D01*
X144824223Y-70049335D01*
X144776254Y-69983594D01*
X144773302Y-69979887D01*
X144741086Y-69940682D01*
X144713607Y-69909312D01*
X144694283Y-69889557D01*
X144687179Y-69884637D01*
X144687284Y-69894531D01*
G36*
X144993215Y-70959864D02*
G01*
X145000077Y-71017289D01*
X145004015Y-71044268D01*
X145011980Y-71095399D01*
X145019037Y-71137328D01*
X145024346Y-71165266D01*
X145026857Y-71174433D01*
X145030349Y-71166098D01*
X145035781Y-71139965D01*
X145042406Y-71101174D01*
X145049482Y-71054862D01*
X145056263Y-71006167D01*
X145062006Y-70960226D01*
X145065967Y-70922179D01*
X145067401Y-70897162D01*
X145067352Y-70894864D01*
X145064707Y-70863296D01*
X145059522Y-70821069D01*
X145055948Y-70796728D01*
X145046401Y-70736772D01*
X145039508Y-70696717D01*
X145034448Y-70673636D01*
X145030399Y-70664602D01*
X145026538Y-70666688D01*
X145022199Y-70676560D01*
X145016712Y-70698363D01*
X145009720Y-70736523D01*
X145002372Y-70784460D01*
X144999015Y-70809333D01*
X144992880Y-70865109D01*
X144990881Y-70912212D01*
X144993215Y-70959864D01*
G37*
X144993215Y-70959864D02*
X145000077Y-71017289D01*
X145004015Y-71044268D01*
X145011980Y-71095399D01*
X145019037Y-71137328D01*
X145024346Y-71165266D01*
X145026857Y-71174433D01*
X145030349Y-71166098D01*
X145035781Y-71139965D01*
X145042406Y-71101174D01*
X145049482Y-71054862D01*
X145056263Y-71006167D01*
X145062006Y-70960226D01*
X145065967Y-70922179D01*
X145067401Y-70897162D01*
X145067352Y-70894864D01*
X145064707Y-70863296D01*
X145059522Y-70821069D01*
X145055948Y-70796728D01*
X145046401Y-70736772D01*
X145039508Y-70696717D01*
X145034448Y-70673636D01*
X145030399Y-70664602D01*
X145026538Y-70666688D01*
X145022199Y-70676560D01*
X145016712Y-70698363D01*
X145009720Y-70736523D01*
X145002372Y-70784460D01*
X144999015Y-70809333D01*
X144992880Y-70865109D01*
X144990881Y-70912212D01*
X144993215Y-70959864D01*
G36*
X144993773Y-70098032D02*
G01*
X144999181Y-70141880D01*
X145006560Y-70191515D01*
X145014020Y-70234448D01*
X145020368Y-70264061D01*
X145022543Y-70271278D01*
X145028888Y-70283264D01*
X145033705Y-70276633D01*
X145038282Y-70254091D01*
X145044161Y-70219653D01*
X145051858Y-70174644D01*
X145056902Y-70145175D01*
X145063718Y-70098691D01*
X145066591Y-70056610D01*
X145065333Y-70012145D01*
X145059760Y-69958513D01*
X145049914Y-69890409D01*
X145042375Y-69843156D01*
X145035779Y-69804349D01*
X145031139Y-69779833D01*
X145029936Y-69774955D01*
X145026851Y-69781020D01*
X145021276Y-69805999D01*
X145013989Y-69845945D01*
X145005768Y-69896913D01*
X145005365Y-69899556D01*
X144996341Y-69963251D01*
X144991536Y-70012249D01*
X144990748Y-70054521D01*
X144993773Y-70098032D01*
G37*
X144993773Y-70098032D02*
X144999181Y-70141880D01*
X145006560Y-70191515D01*
X145014020Y-70234448D01*
X145020368Y-70264061D01*
X145022543Y-70271278D01*
X145028888Y-70283264D01*
X145033705Y-70276633D01*
X145038282Y-70254091D01*
X145044161Y-70219653D01*
X145051858Y-70174644D01*
X145056902Y-70145175D01*
X145063718Y-70098691D01*
X145066591Y-70056610D01*
X145065333Y-70012145D01*
X145059760Y-69958513D01*
X145049914Y-69890409D01*
X145042375Y-69843156D01*
X145035779Y-69804349D01*
X145031139Y-69779833D01*
X145029936Y-69774955D01*
X145026851Y-69781020D01*
X145021276Y-69805999D01*
X145013989Y-69845945D01*
X145005768Y-69896913D01*
X145005365Y-69899556D01*
X144996341Y-69963251D01*
X144991536Y-70012249D01*
X144990748Y-70054521D01*
X144993773Y-70098032D01*
G36*
X145129850Y-70673216D02*
G01*
X145147610Y-70722269D01*
X145164358Y-70763933D01*
X145199484Y-70841287D01*
X145237260Y-70906713D01*
X145284069Y-70971075D01*
X145291543Y-70980417D01*
X145324750Y-71019853D01*
X145349795Y-71046152D01*
X145364640Y-71057328D01*
X145367862Y-71054768D01*
X145363175Y-71035321D01*
X145351349Y-71000460D01*
X145334428Y-70955958D01*
X145322867Y-70927484D01*
X145276776Y-70835407D01*
X145214523Y-70739468D01*
X145140479Y-70646367D01*
X145136304Y-70641634D01*
X145124058Y-70632293D01*
X145121953Y-70643022D01*
X145129850Y-70673216D01*
G37*
X145129850Y-70673216D02*
X145147610Y-70722269D01*
X145164358Y-70763933D01*
X145199484Y-70841287D01*
X145237260Y-70906713D01*
X145284069Y-70971075D01*
X145291543Y-70980417D01*
X145324750Y-71019853D01*
X145349795Y-71046152D01*
X145364640Y-71057328D01*
X145367862Y-71054768D01*
X145363175Y-71035321D01*
X145351349Y-71000460D01*
X145334428Y-70955958D01*
X145322867Y-70927484D01*
X145276776Y-70835407D01*
X145214523Y-70739468D01*
X145140479Y-70646367D01*
X145136304Y-70641634D01*
X145124058Y-70632293D01*
X145121953Y-70643022D01*
X145129850Y-70673216D01*
G36*
X145125793Y-70310730D02*
G01*
X145144873Y-70291285D01*
X145172116Y-70259957D01*
X145201186Y-70224245D01*
X145254223Y-70151677D01*
X145294816Y-70081685D01*
X145324997Y-70014416D01*
X145343406Y-69967315D01*
X145357905Y-69927630D01*
X145366641Y-69900588D01*
X145368348Y-69892194D01*
X145361582Y-69892008D01*
X145344873Y-69906421D01*
X145333112Y-69919273D01*
X145276254Y-69988455D01*
X145232513Y-70049839D01*
X145197377Y-70110541D01*
X145166335Y-70177680D01*
X145160743Y-70191220D01*
X145142027Y-70238853D01*
X145127608Y-70278704D01*
X145119181Y-70305888D01*
X145117828Y-70315076D01*
X145125793Y-70310730D01*
G37*
X145125793Y-70310730D02*
X145144873Y-70291285D01*
X145172116Y-70259957D01*
X145201186Y-70224245D01*
X145254223Y-70151677D01*
X145294816Y-70081685D01*
X145324997Y-70014416D01*
X145343406Y-69967315D01*
X145357905Y-69927630D01*
X145366641Y-69900588D01*
X145368348Y-69892194D01*
X145361582Y-69892008D01*
X145344873Y-69906421D01*
X145333112Y-69919273D01*
X145276254Y-69988455D01*
X145232513Y-70049839D01*
X145197377Y-70110541D01*
X145166335Y-70177680D01*
X145160743Y-70191220D01*
X145142027Y-70238853D01*
X145127608Y-70278704D01*
X145119181Y-70305888D01*
X145117828Y-70315076D01*
X145125793Y-70310730D01*
G36*
X145197296Y-70576591D02*
G01*
X145216370Y-70595746D01*
X145247410Y-70622993D01*
X145282294Y-70651461D01*
X145345036Y-70698053D01*
X145403456Y-70733395D01*
X145468347Y-70763695D01*
X145498290Y-70775700D01*
X145545861Y-70793572D01*
X145584912Y-70807155D01*
X145610837Y-70814917D01*
X145619043Y-70815896D01*
X145612505Y-70807317D01*
X145591138Y-70787648D01*
X145558384Y-70759917D01*
X145522297Y-70730793D01*
X145452894Y-70679829D01*
X145387204Y-70641100D01*
X145314876Y-70608528D01*
X145312622Y-70607633D01*
X145265979Y-70589918D01*
X145227071Y-70576555D01*
X145201019Y-70569222D01*
X145193372Y-70568497D01*
X145197296Y-70576591D01*
G37*
X145197296Y-70576591D02*
X145216370Y-70595746D01*
X145247410Y-70622993D01*
X145282294Y-70651461D01*
X145345036Y-70698053D01*
X145403456Y-70733395D01*
X145468347Y-70763695D01*
X145498290Y-70775700D01*
X145545861Y-70793572D01*
X145584912Y-70807155D01*
X145610837Y-70814917D01*
X145619043Y-70815896D01*
X145612505Y-70807317D01*
X145591138Y-70787648D01*
X145558384Y-70759917D01*
X145522297Y-70730793D01*
X145452894Y-70679829D01*
X145387204Y-70641100D01*
X145314876Y-70608528D01*
X145312622Y-70607633D01*
X145265979Y-70589918D01*
X145227071Y-70576555D01*
X145201019Y-70569222D01*
X145193372Y-70568497D01*
X145197296Y-70576591D01*
G36*
X145193268Y-70384520D02*
G01*
X145216305Y-70378652D01*
X145240775Y-70369788D01*
X145288308Y-70350930D01*
X145340168Y-70330374D01*
X145360159Y-70322456D01*
X145420773Y-70291979D01*
X145490245Y-70244698D01*
X145570307Y-70179414D01*
X145582511Y-70168725D01*
X145606473Y-70146258D01*
X145619600Y-70131280D01*
X145620163Y-70127572D01*
X145606605Y-70131413D01*
X145576418Y-70142185D01*
X145534367Y-70158134D01*
X145495153Y-70173538D01*
X145420592Y-70206349D01*
X145357621Y-70242118D01*
X145295014Y-70287360D01*
X145284216Y-70295966D01*
X145244795Y-70328381D01*
X145212658Y-70356071D01*
X145191780Y-70375534D01*
X145185934Y-70382534D01*
X145193268Y-70384520D01*
G37*
X145193268Y-70384520D02*
X145216305Y-70378652D01*
X145240775Y-70369788D01*
X145288308Y-70350930D01*
X145340168Y-70330374D01*
X145360159Y-70322456D01*
X145420773Y-70291979D01*
X145490245Y-70244698D01*
X145570307Y-70179414D01*
X145582511Y-70168725D01*
X145606473Y-70146258D01*
X145619600Y-70131280D01*
X145620163Y-70127572D01*
X145606605Y-70131413D01*
X145576418Y-70142185D01*
X145534367Y-70158134D01*
X145495153Y-70173538D01*
X145420592Y-70206349D01*
X145357621Y-70242118D01*
X145295014Y-70287360D01*
X145284216Y-70295966D01*
X145244795Y-70328381D01*
X145212658Y-70356071D01*
X145191780Y-70375534D01*
X145185934Y-70382534D01*
X145193268Y-70384520D01*
G36*
X145469123Y-69722647D02*
G01*
X145469840Y-69722650D01*
X145481149Y-69713124D01*
X145502988Y-69686763D01*
X145533518Y-69646233D01*
X145570901Y-69594197D01*
X145613301Y-69533322D01*
X145658878Y-69466271D01*
X145705796Y-69395711D01*
X145752216Y-69324305D01*
X145796300Y-69254720D01*
X145827635Y-69203829D01*
X145881839Y-69115754D01*
X145927258Y-69045377D01*
X145966053Y-68990067D01*
X146000387Y-68947191D01*
X146032423Y-68914116D01*
X146064322Y-68888210D01*
X146098248Y-68866842D01*
X146109461Y-68860756D01*
X146171227Y-68828228D01*
X146996727Y-68828942D01*
X147133528Y-68829175D01*
X147264148Y-68829620D01*
X147386661Y-68830256D01*
X147499142Y-68831063D01*
X147599664Y-68832021D01*
X147686302Y-68833108D01*
X147757131Y-68834306D01*
X147810225Y-68835592D01*
X147843658Y-68836948D01*
X147854857Y-68838042D01*
X147887487Y-68846428D01*
X147862232Y-68889282D01*
X147830959Y-68937589D01*
X147787450Y-68998183D01*
X147735294Y-69066536D01*
X147678079Y-69138119D01*
X147619394Y-69208404D01*
X147562827Y-69272862D01*
X147530916Y-69307364D01*
X147481957Y-69360111D01*
X147447480Y-69400319D01*
X147425085Y-69431201D01*
X147412367Y-69455969D01*
X147407820Y-69472012D01*
X147400699Y-69495636D01*
X147386395Y-69518913D01*
X147361378Y-69546196D01*
X147322114Y-69581839D01*
X147310794Y-69591594D01*
X147087588Y-69768852D01*
X146848106Y-69932970D01*
X146596596Y-70081386D01*
X146337305Y-70211539D01*
X146148136Y-70292522D01*
X146068033Y-70323124D01*
X145982675Y-70353653D01*
X145897109Y-70382476D01*
X145816380Y-70407961D01*
X145745532Y-70428475D01*
X145689611Y-70442387D01*
X145677259Y-70444886D01*
X145645295Y-70455549D01*
X145621124Y-70471739D01*
X145608549Y-70489225D01*
X145611374Y-70503777D01*
X145619896Y-70508681D01*
X145635886Y-70512669D01*
X145671576Y-70520696D01*
X145724052Y-70532133D01*
X145790399Y-70546353D01*
X145867703Y-70562730D01*
X145953049Y-70580635D01*
X145994376Y-70589248D01*
X146081091Y-70607499D01*
X146159875Y-70624499D01*
X146228060Y-70639639D01*
X146282978Y-70652311D01*
X146321964Y-70661905D01*
X146342349Y-70667813D01*
X146344724Y-70669210D01*
X146332738Y-70676085D01*
X146304899Y-70688221D01*
X146267080Y-70703068D01*
X146264688Y-70703965D01*
X146224206Y-70720125D01*
X146201147Y-70733020D01*
X146190867Y-70746179D01*
X146188703Y-70761692D01*
X146190697Y-70795384D01*
X146198974Y-70819207D01*
X146217623Y-70837319D01*
X146250732Y-70853879D01*
X146295962Y-70870783D01*
X146330147Y-70884993D01*
X146374180Y-70906347D01*
X146423938Y-70932472D01*
X146475294Y-70960993D01*
X146524125Y-70989539D01*
X146566306Y-71015737D01*
X146597712Y-71037212D01*
X146614218Y-71051593D01*
X146615727Y-71054751D01*
X146605820Y-71060874D01*
X146579942Y-71072250D01*
X146546454Y-71085364D01*
X146510809Y-71099892D01*
X146485806Y-71112372D01*
X146477181Y-71119619D01*
X146486860Y-71135940D01*
X146511109Y-71154773D01*
X146542743Y-71170887D01*
X146552227Y-71174289D01*
X146572895Y-71183404D01*
X146585125Y-71198409D01*
X146593020Y-71226086D01*
X146596810Y-71247955D01*
X146604592Y-71284202D01*
X146613967Y-71310539D01*
X146619901Y-71318780D01*
X146635931Y-71325966D01*
X146668376Y-71338569D01*
X146711807Y-71354523D01*
X146741218Y-71364962D01*
X146798766Y-71386688D01*
X146842932Y-71408244D01*
X146882773Y-71434903D01*
X146927350Y-71471933D01*
X146931718Y-71475790D01*
X146987546Y-71523987D01*
X147039551Y-71565471D01*
X147090666Y-71601621D01*
X147143825Y-71633813D01*
X147201958Y-71663423D01*
X147268000Y-71691828D01*
X147344883Y-71720406D01*
X147435538Y-71750533D01*
X147542899Y-71783586D01*
X147661980Y-71818643D01*
X147672838Y-71830826D01*
X147686845Y-71858085D01*
X147695993Y-71881012D01*
X147714076Y-71920024D01*
X147741160Y-71956540D01*
X147782311Y-71997195D01*
X147789852Y-72003921D01*
X147823127Y-72034427D01*
X147848412Y-72059724D01*
X147861621Y-72075643D01*
X147862636Y-72078200D01*
X147859005Y-72084429D01*
X147847215Y-72089899D01*
X147825920Y-72094665D01*
X147793774Y-72098783D01*
X147749432Y-72102307D01*
X147691546Y-72105294D01*
X147618771Y-72107800D01*
X147529761Y-72109879D01*
X147423170Y-72111587D01*
X147297652Y-72112981D01*
X147151861Y-72114114D01*
X146984451Y-72115043D01*
X146967696Y-72115122D01*
X146193983Y-72118682D01*
X146119105Y-72081836D01*
X146075162Y-72057259D01*
X146034427Y-72029508D01*
X146008024Y-72006790D01*
X145991207Y-71985536D01*
X145964950Y-71948025D01*
X145931621Y-71897844D01*
X145893590Y-71838580D01*
X145853226Y-71773818D01*
X145841713Y-71755000D01*
X145801053Y-71689553D01*
X145756449Y-71619987D01*
X145709758Y-71548978D01*
X145662840Y-71479201D01*
X145617550Y-71413334D01*
X145575748Y-71354050D01*
X145539290Y-71304027D01*
X145510035Y-71265940D01*
X145489840Y-71242465D01*
X145481386Y-71235998D01*
X145472964Y-71244242D01*
X145472727Y-71246879D01*
X145478031Y-71264926D01*
X145492939Y-71300226D01*
X145515942Y-71349793D01*
X145545532Y-71410639D01*
X145580202Y-71479775D01*
X145618444Y-71554215D01*
X145658750Y-71630970D01*
X145699611Y-71707053D01*
X145739520Y-71779476D01*
X145758639Y-71813368D01*
X145806930Y-71896967D01*
X145846750Y-71962868D01*
X145880046Y-72013980D01*
X145908763Y-72053212D01*
X145934848Y-72083473D01*
X145948373Y-72096965D01*
X146033208Y-72161810D01*
X146128264Y-72206000D01*
X146218902Y-72227373D01*
X146246242Y-72229654D01*
X146293727Y-72231838D01*
X146358947Y-72233909D01*
X146439493Y-72235850D01*
X146532954Y-72237645D01*
X146636919Y-72239278D01*
X146748980Y-72240732D01*
X146866725Y-72241991D01*
X146987744Y-72243039D01*
X147109628Y-72243859D01*
X147229967Y-72244435D01*
X147346349Y-72244751D01*
X147456366Y-72244790D01*
X147557606Y-72244535D01*
X147647660Y-72243971D01*
X147724118Y-72243081D01*
X147784569Y-72241849D01*
X147826604Y-72240258D01*
X147847149Y-72238425D01*
X147937850Y-72210939D01*
X148025683Y-72164592D01*
X148103594Y-72103235D01*
X148114345Y-72092611D01*
X148129874Y-72075505D01*
X148147530Y-72053340D01*
X148168242Y-72024611D01*
X148192939Y-71987812D01*
X148222550Y-71941439D01*
X148258002Y-71883988D01*
X148300226Y-71813953D01*
X148350150Y-71729831D01*
X148408702Y-71630115D01*
X148476812Y-71513302D01*
X148553975Y-71380361D01*
X148619724Y-71266701D01*
X148682716Y-71157426D01*
X148741873Y-71054426D01*
X148796122Y-70959591D01*
X148844387Y-70874811D01*
X148885592Y-70801976D01*
X148918662Y-70742976D01*
X148942522Y-70699702D01*
X148956096Y-70674043D01*
X148957694Y-70670737D01*
X148976964Y-70611970D01*
X148989043Y-70539348D01*
X148993568Y-70461072D01*
X148990178Y-70385345D01*
X148978509Y-70320369D01*
X148973822Y-70305537D01*
X148964068Y-70284395D01*
X148943818Y-70245451D01*
X148914253Y-70190826D01*
X148876558Y-70122637D01*
X148831914Y-70043003D01*
X148781504Y-69954043D01*
X148726512Y-69857875D01*
X148668119Y-69756618D01*
X148648331Y-69722492D01*
X148558557Y-69567859D01*
X148479533Y-69431860D01*
X148410355Y-69313194D01*
X148350118Y-69210562D01*
X148297917Y-69122663D01*
X148252849Y-69048198D01*
X148214007Y-68985866D01*
X148180488Y-68934367D01*
X148151387Y-68892401D01*
X148125799Y-68858668D01*
X148102820Y-68831868D01*
X148081545Y-68810700D01*
X148061069Y-68793866D01*
X148040489Y-68780064D01*
X148018899Y-68767995D01*
X147995394Y-68756358D01*
X147969070Y-68743853D01*
X147966545Y-68742647D01*
X147879954Y-68701228D01*
X147054454Y-68702702D01*
X146895036Y-68703024D01*
X146756995Y-68703407D01*
X146638619Y-68703895D01*
X146538194Y-68704528D01*
X146454006Y-68705348D01*
X146384342Y-68706398D01*
X146327489Y-68707720D01*
X146281734Y-68709355D01*
X146245363Y-68711346D01*
X146216664Y-68713734D01*
X146193921Y-68716561D01*
X146175423Y-68719870D01*
X146159456Y-68723702D01*
X146155798Y-68724708D01*
X146076890Y-68755158D01*
X146000730Y-68799535D01*
X145935416Y-68852693D01*
X145908939Y-68881471D01*
X145896668Y-68899911D01*
X145875635Y-68935267D01*
X145847284Y-68984859D01*
X145813058Y-69046005D01*
X145774398Y-69116024D01*
X145732747Y-69192234D01*
X145689548Y-69271953D01*
X145646244Y-69352501D01*
X145604276Y-69431195D01*
X145565088Y-69505354D01*
X145530122Y-69572297D01*
X145500820Y-69629343D01*
X145478625Y-69673809D01*
X145464980Y-69703014D01*
X145461181Y-69713785D01*
X145469123Y-69722647D01*
G37*
X145469123Y-69722647D02*
X145469840Y-69722650D01*
X145481149Y-69713124D01*
X145502988Y-69686763D01*
X145533518Y-69646233D01*
X145570901Y-69594197D01*
X145613301Y-69533322D01*
X145658878Y-69466271D01*
X145705796Y-69395711D01*
X145752216Y-69324305D01*
X145796300Y-69254720D01*
X145827635Y-69203829D01*
X145881839Y-69115754D01*
X145927258Y-69045377D01*
X145966053Y-68990067D01*
X146000387Y-68947191D01*
X146032423Y-68914116D01*
X146064322Y-68888210D01*
X146098248Y-68866842D01*
X146109461Y-68860756D01*
X146171227Y-68828228D01*
X146996727Y-68828942D01*
X147133528Y-68829175D01*
X147264148Y-68829620D01*
X147386661Y-68830256D01*
X147499142Y-68831063D01*
X147599664Y-68832021D01*
X147686302Y-68833108D01*
X147757131Y-68834306D01*
X147810225Y-68835592D01*
X147843658Y-68836948D01*
X147854857Y-68838042D01*
X147887487Y-68846428D01*
X147862232Y-68889282D01*
X147830959Y-68937589D01*
X147787450Y-68998183D01*
X147735294Y-69066536D01*
X147678079Y-69138119D01*
X147619394Y-69208404D01*
X147562827Y-69272862D01*
X147530916Y-69307364D01*
X147481957Y-69360111D01*
X147447480Y-69400319D01*
X147425085Y-69431201D01*
X147412367Y-69455969D01*
X147407820Y-69472012D01*
X147400699Y-69495636D01*
X147386395Y-69518913D01*
X147361378Y-69546196D01*
X147322114Y-69581839D01*
X147310794Y-69591594D01*
X147087588Y-69768852D01*
X146848106Y-69932970D01*
X146596596Y-70081386D01*
X146337305Y-70211539D01*
X146148136Y-70292522D01*
X146068033Y-70323124D01*
X145982675Y-70353653D01*
X145897109Y-70382476D01*
X145816380Y-70407961D01*
X145745532Y-70428475D01*
X145689611Y-70442387D01*
X145677259Y-70444886D01*
X145645295Y-70455549D01*
X145621124Y-70471739D01*
X145608549Y-70489225D01*
X145611374Y-70503777D01*
X145619896Y-70508681D01*
X145635886Y-70512669D01*
X145671576Y-70520696D01*
X145724052Y-70532133D01*
X145790399Y-70546353D01*
X145867703Y-70562730D01*
X145953049Y-70580635D01*
X145994376Y-70589248D01*
X146081091Y-70607499D01*
X146159875Y-70624499D01*
X146228060Y-70639639D01*
X146282978Y-70652311D01*
X146321964Y-70661905D01*
X146342349Y-70667813D01*
X146344724Y-70669210D01*
X146332738Y-70676085D01*
X146304899Y-70688221D01*
X146267080Y-70703068D01*
X146264688Y-70703965D01*
X146224206Y-70720125D01*
X146201147Y-70733020D01*
X146190867Y-70746179D01*
X146188703Y-70761692D01*
X146190697Y-70795384D01*
X146198974Y-70819207D01*
X146217623Y-70837319D01*
X146250732Y-70853879D01*
X146295962Y-70870783D01*
X146330147Y-70884993D01*
X146374180Y-70906347D01*
X146423938Y-70932472D01*
X146475294Y-70960993D01*
X146524125Y-70989539D01*
X146566306Y-71015737D01*
X146597712Y-71037212D01*
X146614218Y-71051593D01*
X146615727Y-71054751D01*
X146605820Y-71060874D01*
X146579942Y-71072250D01*
X146546454Y-71085364D01*
X146510809Y-71099892D01*
X146485806Y-71112372D01*
X146477181Y-71119619D01*
X146486860Y-71135940D01*
X146511109Y-71154773D01*
X146542743Y-71170887D01*
X146552227Y-71174289D01*
X146572895Y-71183404D01*
X146585125Y-71198409D01*
X146593020Y-71226086D01*
X146596810Y-71247955D01*
X146604592Y-71284202D01*
X146613967Y-71310539D01*
X146619901Y-71318780D01*
X146635931Y-71325966D01*
X146668376Y-71338569D01*
X146711807Y-71354523D01*
X146741218Y-71364962D01*
X146798766Y-71386688D01*
X146842932Y-71408244D01*
X146882773Y-71434903D01*
X146927350Y-71471933D01*
X146931718Y-71475790D01*
X146987546Y-71523987D01*
X147039551Y-71565471D01*
X147090666Y-71601621D01*
X147143825Y-71633813D01*
X147201958Y-71663423D01*
X147268000Y-71691828D01*
X147344883Y-71720406D01*
X147435538Y-71750533D01*
X147542899Y-71783586D01*
X147661980Y-71818643D01*
X147672838Y-71830826D01*
X147686845Y-71858085D01*
X147695993Y-71881012D01*
X147714076Y-71920024D01*
X147741160Y-71956540D01*
X147782311Y-71997195D01*
X147789852Y-72003921D01*
X147823127Y-72034427D01*
X147848412Y-72059724D01*
X147861621Y-72075643D01*
X147862636Y-72078200D01*
X147859005Y-72084429D01*
X147847215Y-72089899D01*
X147825920Y-72094665D01*
X147793774Y-72098783D01*
X147749432Y-72102307D01*
X147691546Y-72105294D01*
X147618771Y-72107800D01*
X147529761Y-72109879D01*
X147423170Y-72111587D01*
X147297652Y-72112981D01*
X147151861Y-72114114D01*
X146984451Y-72115043D01*
X146967696Y-72115122D01*
X146193983Y-72118682D01*
X146119105Y-72081836D01*
X146075162Y-72057259D01*
X146034427Y-72029508D01*
X146008024Y-72006790D01*
X145991207Y-71985536D01*
X145964950Y-71948025D01*
X145931621Y-71897844D01*
X145893590Y-71838580D01*
X145853226Y-71773818D01*
X145841713Y-71755000D01*
X145801053Y-71689553D01*
X145756449Y-71619987D01*
X145709758Y-71548978D01*
X145662840Y-71479201D01*
X145617550Y-71413334D01*
X145575748Y-71354050D01*
X145539290Y-71304027D01*
X145510035Y-71265940D01*
X145489840Y-71242465D01*
X145481386Y-71235998D01*
X145472964Y-71244242D01*
X145472727Y-71246879D01*
X145478031Y-71264926D01*
X145492939Y-71300226D01*
X145515942Y-71349793D01*
X145545532Y-71410639D01*
X145580202Y-71479775D01*
X145618444Y-71554215D01*
X145658750Y-71630970D01*
X145699611Y-71707053D01*
X145739520Y-71779476D01*
X145758639Y-71813368D01*
X145806930Y-71896967D01*
X145846750Y-71962868D01*
X145880046Y-72013980D01*
X145908763Y-72053212D01*
X145934848Y-72083473D01*
X145948373Y-72096965D01*
X146033208Y-72161810D01*
X146128264Y-72206000D01*
X146218902Y-72227373D01*
X146246242Y-72229654D01*
X146293727Y-72231838D01*
X146358947Y-72233909D01*
X146439493Y-72235850D01*
X146532954Y-72237645D01*
X146636919Y-72239278D01*
X146748980Y-72240732D01*
X146866725Y-72241991D01*
X146987744Y-72243039D01*
X147109628Y-72243859D01*
X147229967Y-72244435D01*
X147346349Y-72244751D01*
X147456366Y-72244790D01*
X147557606Y-72244535D01*
X147647660Y-72243971D01*
X147724118Y-72243081D01*
X147784569Y-72241849D01*
X147826604Y-72240258D01*
X147847149Y-72238425D01*
X147937850Y-72210939D01*
X148025683Y-72164592D01*
X148103594Y-72103235D01*
X148114345Y-72092611D01*
X148129874Y-72075505D01*
X148147530Y-72053340D01*
X148168242Y-72024611D01*
X148192939Y-71987812D01*
X148222550Y-71941439D01*
X148258002Y-71883988D01*
X148300226Y-71813953D01*
X148350150Y-71729831D01*
X148408702Y-71630115D01*
X148476812Y-71513302D01*
X148553975Y-71380361D01*
X148619724Y-71266701D01*
X148682716Y-71157426D01*
X148741873Y-71054426D01*
X148796122Y-70959591D01*
X148844387Y-70874811D01*
X148885592Y-70801976D01*
X148918662Y-70742976D01*
X148942522Y-70699702D01*
X148956096Y-70674043D01*
X148957694Y-70670737D01*
X148976964Y-70611970D01*
X148989043Y-70539348D01*
X148993568Y-70461072D01*
X148990178Y-70385345D01*
X148978509Y-70320369D01*
X148973822Y-70305537D01*
X148964068Y-70284395D01*
X148943818Y-70245451D01*
X148914253Y-70190826D01*
X148876558Y-70122637D01*
X148831914Y-70043003D01*
X148781504Y-69954043D01*
X148726512Y-69857875D01*
X148668119Y-69756618D01*
X148648331Y-69722492D01*
X148558557Y-69567859D01*
X148479533Y-69431860D01*
X148410355Y-69313194D01*
X148350118Y-69210562D01*
X148297917Y-69122663D01*
X148252849Y-69048198D01*
X148214007Y-68985866D01*
X148180488Y-68934367D01*
X148151387Y-68892401D01*
X148125799Y-68858668D01*
X148102820Y-68831868D01*
X148081545Y-68810700D01*
X148061069Y-68793866D01*
X148040489Y-68780064D01*
X148018899Y-68767995D01*
X147995394Y-68756358D01*
X147969070Y-68743853D01*
X147966545Y-68742647D01*
X147879954Y-68701228D01*
X147054454Y-68702702D01*
X146895036Y-68703024D01*
X146756995Y-68703407D01*
X146638619Y-68703895D01*
X146538194Y-68704528D01*
X146454006Y-68705348D01*
X146384342Y-68706398D01*
X146327489Y-68707720D01*
X146281734Y-68709355D01*
X146245363Y-68711346D01*
X146216664Y-68713734D01*
X146193921Y-68716561D01*
X146175423Y-68719870D01*
X146159456Y-68723702D01*
X146155798Y-68724708D01*
X146076890Y-68755158D01*
X146000730Y-68799535D01*
X145935416Y-68852693D01*
X145908939Y-68881471D01*
X145896668Y-68899911D01*
X145875635Y-68935267D01*
X145847284Y-68984859D01*
X145813058Y-69046005D01*
X145774398Y-69116024D01*
X145732747Y-69192234D01*
X145689548Y-69271953D01*
X145646244Y-69352501D01*
X145604276Y-69431195D01*
X145565088Y-69505354D01*
X145530122Y-69572297D01*
X145500820Y-69629343D01*
X145478625Y-69673809D01*
X145464980Y-69703014D01*
X145461181Y-69713785D01*
X145469123Y-69722647D01*
%TO.C,J2*%
D10*
X134961380Y-73199666D02*
X135675666Y-73199666D01*
X135818523Y-73152047D01*
X135913761Y-73056809D01*
X135961380Y-72913952D01*
X135961380Y-72818714D01*
X135056619Y-73628238D02*
X135009000Y-73675857D01*
X134961380Y-73771095D01*
X134961380Y-74009190D01*
X135009000Y-74104428D01*
X135056619Y-74152047D01*
X135151857Y-74199666D01*
X135247095Y-74199666D01*
X135389952Y-74152047D01*
X135961380Y-73580619D01*
X135961380Y-74199666D01*
%TD*%
M02*
