%TF.GenerationSoftware,KiCad,Pcbnew,(5.1.8)-1*%
%TF.CreationDate,2021-11-24T15:46:35-08:00*%
%TF.ProjectId,ISP_SMT_Pogo_6p,4953505f-534d-4545-9f50-6f676f5f3670,rev?*%
%TF.SameCoordinates,Original*%
%TF.FileFunction,Copper,L2,Bot*%
%TF.FilePolarity,Positive*%
%FSLAX46Y46*%
G04 Gerber Fmt 4.6, Leading zero omitted, Abs format (unit mm)*
G04 Created by KiCad (PCBNEW (5.1.8)-1) date 2021-11-24 15:46:35*
%MOMM*%
%LPD*%
G01*
G04 APERTURE LIST*
%TA.AperFunction,SMDPad,CuDef*%
%ADD10R,2.540000X1.270000*%
%TD*%
%TA.AperFunction,ComponentPad*%
%ADD11C,2.032000*%
%TD*%
%TA.AperFunction,ComponentPad*%
%ADD12C,1.700000*%
%TD*%
%TA.AperFunction,ComponentPad*%
%ADD13C,5.334000*%
%TD*%
%TA.AperFunction,Conductor*%
%ADD14C,0.250000*%
%TD*%
%TA.AperFunction,Conductor*%
%ADD15C,0.508000*%
%TD*%
%TA.AperFunction,Conductor*%
%ADD16C,0.381000*%
%TD*%
%TA.AperFunction,Conductor*%
%ADD17C,0.100000*%
%TD*%
G04 APERTURE END LIST*
D10*
%TO.P,J2,1*%
%TO.N,/MISO*%
X134408000Y-76591000D03*
%TO.P,J2,5*%
%TO.N,/RST*%
X134408000Y-81691000D03*
%TO.P,J2,3*%
%TO.N,/SCK*%
X134408000Y-79091000D03*
%TO.P,J2,4*%
%TO.N,/MOSI*%
X146008000Y-79091000D03*
%TO.P,J2,6*%
%TO.N,/GND*%
X146008000Y-81691000D03*
%TO.P,J2,2*%
%TO.N,/VCC*%
X146008000Y-76591000D03*
D11*
%TO.P,J2,6*%
%TO.N,/GND*%
X144018000Y-81661000D03*
%TO.P,J2,4*%
%TO.N,/MOSI*%
X144018000Y-79121000D03*
%TO.P,J2,5*%
%TO.N,/RST*%
X136398000Y-81661000D03*
%TO.P,J2,3*%
%TO.N,/SCK*%
X136398000Y-79121000D03*
%TO.P,J2,1*%
%TO.N,/MISO*%
X136398000Y-76581000D03*
%TO.P,J2,2*%
%TO.N,/VCC*%
X144018000Y-76581000D03*
%TD*%
D12*
%TO.P,J1,6*%
%TO.N,/GND*%
X141478000Y-80645000D03*
%TO.P,J1,4*%
%TO.N,/MOSI*%
X141478000Y-78105000D03*
%TO.P,J1,2*%
%TO.N,/VCC*%
X141478000Y-75565000D03*
%TO.P,J1,5*%
%TO.N,/RST*%
X138938000Y-80645000D03*
%TO.P,J1,3*%
%TO.N,/SCK*%
X138938000Y-78105000D03*
%TO.P,J1,1*%
%TO.N,/MISO*%
%TA.AperFunction,ComponentPad*%
G36*
G01*
X138088000Y-76165000D02*
X138088000Y-74965000D01*
G75*
G02*
X138338000Y-74715000I250000J0D01*
G01*
X139538000Y-74715000D01*
G75*
G02*
X139788000Y-74965000I0J-250000D01*
G01*
X139788000Y-76165000D01*
G75*
G02*
X139538000Y-76415000I-250000J0D01*
G01*
X138338000Y-76415000D01*
G75*
G02*
X138088000Y-76165000I0J250000D01*
G01*
G37*
%TD.AperFunction*%
%TD*%
D13*
%TO.P,H2,2*%
%TO.N,/GND*%
X140208000Y-88646000D03*
%TD*%
%TO.P,H1,1*%
%TO.N,/GND*%
X140208000Y-67564000D03*
%TD*%
D14*
%TO.N,/GND*%
X145978000Y-81661000D02*
X146008000Y-81691000D01*
D15*
X146008000Y-81691000D02*
X146008000Y-83778000D01*
D14*
%TO.N,/MOSI*%
X144048000Y-79091000D02*
X144018000Y-79121000D01*
X146008000Y-79091000D02*
X144048000Y-79091000D01*
%TO.N,/RST*%
X134438000Y-81661000D02*
X134408000Y-81691000D01*
X136398000Y-81661000D02*
X134438000Y-81661000D01*
%TO.N,/SCK*%
X134438000Y-79121000D02*
X134408000Y-79091000D01*
X136398000Y-79121000D02*
X134438000Y-79121000D01*
%TO.N,/MISO*%
X134418000Y-76581000D02*
X134408000Y-76591000D01*
X136398000Y-76581000D02*
X134418000Y-76581000D01*
%TO.N,/VCC*%
X144028000Y-76591000D02*
X144018000Y-76581000D01*
X146008000Y-76591000D02*
X144028000Y-76591000D01*
%TD*%
D16*
%TO.N,/GND*%
X137985542Y-65251740D02*
X140208000Y-67474197D01*
X142430458Y-65251740D01*
X142343855Y-65112500D01*
X148882500Y-65112500D01*
X148882501Y-91224500D01*
X142264865Y-91224500D01*
X142430458Y-90958260D01*
X140208000Y-88735803D01*
X137985542Y-90958260D01*
X138151135Y-91224500D01*
X131533500Y-91224500D01*
X131533500Y-88576706D01*
X136826926Y-88576706D01*
X136878375Y-89237653D01*
X137057778Y-89875862D01*
X137358242Y-90466808D01*
X137435237Y-90582039D01*
X137895740Y-90868458D01*
X140118197Y-88646000D01*
X140297803Y-88646000D01*
X142520260Y-90868458D01*
X142980763Y-90582039D01*
X143305187Y-90003900D01*
X143510588Y-89373577D01*
X143589074Y-88715294D01*
X143537625Y-88054347D01*
X143358222Y-87416138D01*
X143057758Y-86825192D01*
X142980763Y-86709961D01*
X142520260Y-86423542D01*
X140297803Y-88646000D01*
X140118197Y-88646000D01*
X137895740Y-86423542D01*
X137435237Y-86709961D01*
X137110813Y-87288100D01*
X136905412Y-87918423D01*
X136826926Y-88576706D01*
X131533500Y-88576706D01*
X131533500Y-86333740D01*
X137985542Y-86333740D01*
X140208000Y-88556197D01*
X142430458Y-86333740D01*
X142144039Y-85873237D01*
X141565900Y-85548813D01*
X140935577Y-85343412D01*
X140277294Y-85264926D01*
X139616347Y-85316375D01*
X138978138Y-85495778D01*
X138387192Y-85796242D01*
X138271961Y-85873237D01*
X137985542Y-86333740D01*
X131533500Y-86333740D01*
X131533500Y-75956000D01*
X132436121Y-75956000D01*
X132436121Y-77226000D01*
X132449607Y-77362930D01*
X132489548Y-77494597D01*
X132554409Y-77615943D01*
X132641697Y-77722303D01*
X132748057Y-77809591D01*
X132806819Y-77841000D01*
X132748057Y-77872409D01*
X132641697Y-77959697D01*
X132554409Y-78066057D01*
X132489548Y-78187403D01*
X132449607Y-78319070D01*
X132436121Y-78456000D01*
X132436121Y-79726000D01*
X132449607Y-79862930D01*
X132489548Y-79994597D01*
X132554409Y-80115943D01*
X132641697Y-80222303D01*
X132748057Y-80309591D01*
X132869403Y-80374452D01*
X132923954Y-80391000D01*
X132869403Y-80407548D01*
X132748057Y-80472409D01*
X132641697Y-80559697D01*
X132554409Y-80666057D01*
X132489548Y-80787403D01*
X132449607Y-80919070D01*
X132436121Y-81056000D01*
X132436121Y-82326000D01*
X132449607Y-82462930D01*
X132489548Y-82594597D01*
X132554409Y-82715943D01*
X132641697Y-82822303D01*
X132748057Y-82909591D01*
X132869403Y-82974452D01*
X133001070Y-83014393D01*
X133138000Y-83027879D01*
X135357661Y-83027879D01*
X135585880Y-83180370D01*
X135897899Y-83309613D01*
X136229136Y-83375500D01*
X136566864Y-83375500D01*
X136898101Y-83309613D01*
X137210120Y-83180370D01*
X137490930Y-82992739D01*
X137729739Y-82753930D01*
X137917370Y-82473120D01*
X138046613Y-82161101D01*
X138090391Y-81941012D01*
X138204510Y-82017263D01*
X138486319Y-82133992D01*
X138785486Y-82193500D01*
X139090514Y-82193500D01*
X139389681Y-82133992D01*
X139671490Y-82017263D01*
X139925112Y-81847799D01*
X140140799Y-81632112D01*
X140218212Y-81516255D01*
X140457356Y-81575841D01*
X141388197Y-80645000D01*
X140457356Y-79714159D01*
X140218212Y-79773745D01*
X140140799Y-79657888D01*
X139925112Y-79442201D01*
X139824538Y-79375000D01*
X139925112Y-79307799D01*
X140140799Y-79092112D01*
X140208000Y-78991538D01*
X140275201Y-79092112D01*
X140490888Y-79307799D01*
X140606745Y-79385212D01*
X140547159Y-79624356D01*
X141478000Y-80555197D01*
X141492142Y-80541055D01*
X141581945Y-80630858D01*
X141567803Y-80645000D01*
X141581945Y-80659142D01*
X141492142Y-80748945D01*
X141478000Y-80734803D01*
X140547159Y-81665644D01*
X140615544Y-81940101D01*
X140884778Y-82083472D01*
X141176808Y-82171564D01*
X141480413Y-82200991D01*
X141783926Y-82170622D01*
X142075681Y-82081625D01*
X142323300Y-81949271D01*
X142327505Y-81993040D01*
X142424765Y-82316459D01*
X142583252Y-82614689D01*
X142587852Y-82621573D01*
X142879298Y-82709900D01*
X143928197Y-81661000D01*
X143914055Y-81646858D01*
X144003858Y-81557055D01*
X144018000Y-81571197D01*
X144032142Y-81557055D01*
X144036121Y-81561034D01*
X144036121Y-81760966D01*
X144032142Y-81764945D01*
X144018000Y-81750803D01*
X142969100Y-82799702D01*
X143057427Y-83091148D01*
X143354892Y-83251067D01*
X143677840Y-83349880D01*
X144013861Y-83383791D01*
X144350040Y-83351495D01*
X144673459Y-83254235D01*
X144971689Y-83095748D01*
X144978573Y-83091148D01*
X144997748Y-83027879D01*
X147278000Y-83027879D01*
X147414930Y-83014393D01*
X147546597Y-82974452D01*
X147667943Y-82909591D01*
X147774303Y-82822303D01*
X147861591Y-82715943D01*
X147926452Y-82594597D01*
X147966393Y-82462930D01*
X147979879Y-82326000D01*
X147979879Y-81056000D01*
X147966393Y-80919070D01*
X147926452Y-80787403D01*
X147861591Y-80666057D01*
X147774303Y-80559697D01*
X147667943Y-80472409D01*
X147546597Y-80407548D01*
X147492046Y-80391000D01*
X147546597Y-80374452D01*
X147667943Y-80309591D01*
X147774303Y-80222303D01*
X147861591Y-80115943D01*
X147926452Y-79994597D01*
X147966393Y-79862930D01*
X147979879Y-79726000D01*
X147979879Y-78456000D01*
X147966393Y-78319070D01*
X147926452Y-78187403D01*
X147861591Y-78066057D01*
X147774303Y-77959697D01*
X147667943Y-77872409D01*
X147609181Y-77841000D01*
X147667943Y-77809591D01*
X147774303Y-77722303D01*
X147861591Y-77615943D01*
X147926452Y-77494597D01*
X147966393Y-77362930D01*
X147979879Y-77226000D01*
X147979879Y-75956000D01*
X147966393Y-75819070D01*
X147926452Y-75687403D01*
X147861591Y-75566057D01*
X147774303Y-75459697D01*
X147667943Y-75372409D01*
X147546597Y-75307548D01*
X147414930Y-75267607D01*
X147278000Y-75254121D01*
X145115790Y-75254121D01*
X145110930Y-75249261D01*
X144830120Y-75061630D01*
X144518101Y-74932387D01*
X144186864Y-74866500D01*
X143849136Y-74866500D01*
X143517899Y-74932387D01*
X143205880Y-75061630D01*
X142985942Y-75208588D01*
X142966992Y-75113319D01*
X142850263Y-74831510D01*
X142680799Y-74577888D01*
X142465112Y-74362201D01*
X142211490Y-74192737D01*
X141929681Y-74076008D01*
X141630514Y-74016500D01*
X141325486Y-74016500D01*
X141026319Y-74076008D01*
X140744510Y-74192737D01*
X140490888Y-74362201D01*
X140359925Y-74493164D01*
X140329458Y-74436164D01*
X140211080Y-74291920D01*
X140066836Y-74173542D01*
X139902268Y-74085578D01*
X139723702Y-74031411D01*
X139538000Y-74013121D01*
X138338000Y-74013121D01*
X138152298Y-74031411D01*
X137973732Y-74085578D01*
X137809164Y-74173542D01*
X137664920Y-74291920D01*
X137546542Y-74436164D01*
X137458578Y-74600732D01*
X137404411Y-74779298D01*
X137386121Y-74965000D01*
X137386121Y-75179230D01*
X137210120Y-75061630D01*
X136898101Y-74932387D01*
X136566864Y-74866500D01*
X136229136Y-74866500D01*
X135897899Y-74932387D01*
X135585880Y-75061630D01*
X135305070Y-75249261D01*
X135300210Y-75254121D01*
X133138000Y-75254121D01*
X133001070Y-75267607D01*
X132869403Y-75307548D01*
X132748057Y-75372409D01*
X132641697Y-75459697D01*
X132554409Y-75566057D01*
X132489548Y-75687403D01*
X132449607Y-75819070D01*
X132436121Y-75956000D01*
X131533500Y-75956000D01*
X131533500Y-69876260D01*
X137985542Y-69876260D01*
X138271961Y-70336763D01*
X138850100Y-70661187D01*
X139480423Y-70866588D01*
X140138706Y-70945074D01*
X140799653Y-70893625D01*
X141437862Y-70714222D01*
X142028808Y-70413758D01*
X142144039Y-70336763D01*
X142430458Y-69876260D01*
X140208000Y-67653803D01*
X137985542Y-69876260D01*
X131533500Y-69876260D01*
X131533500Y-69162300D01*
X133439322Y-67494706D01*
X136826926Y-67494706D01*
X136878375Y-68155653D01*
X137057778Y-68793862D01*
X137358242Y-69384808D01*
X137435237Y-69500039D01*
X137895740Y-69786458D01*
X140118197Y-67564000D01*
X140297803Y-67564000D01*
X142520260Y-69786458D01*
X142980763Y-69500039D01*
X143305187Y-68921900D01*
X143510588Y-68291577D01*
X143589074Y-67633294D01*
X143537625Y-66972347D01*
X143358222Y-66334138D01*
X143057758Y-65743192D01*
X142980763Y-65627961D01*
X142520260Y-65341542D01*
X140297803Y-67564000D01*
X140118197Y-67564000D01*
X137895740Y-65341542D01*
X137435237Y-65627961D01*
X137110813Y-66206100D01*
X136905412Y-66836423D01*
X136826926Y-67494706D01*
X133439322Y-67494706D01*
X136161844Y-65112500D01*
X138072145Y-65112500D01*
X137985542Y-65251740D01*
%TA.AperFunction,Conductor*%
D17*
G36*
X137985542Y-65251740D02*
G01*
X140208000Y-67474197D01*
X142430458Y-65251740D01*
X142343855Y-65112500D01*
X148882500Y-65112500D01*
X148882501Y-91224500D01*
X142264865Y-91224500D01*
X142430458Y-90958260D01*
X140208000Y-88735803D01*
X137985542Y-90958260D01*
X138151135Y-91224500D01*
X131533500Y-91224500D01*
X131533500Y-88576706D01*
X136826926Y-88576706D01*
X136878375Y-89237653D01*
X137057778Y-89875862D01*
X137358242Y-90466808D01*
X137435237Y-90582039D01*
X137895740Y-90868458D01*
X140118197Y-88646000D01*
X140297803Y-88646000D01*
X142520260Y-90868458D01*
X142980763Y-90582039D01*
X143305187Y-90003900D01*
X143510588Y-89373577D01*
X143589074Y-88715294D01*
X143537625Y-88054347D01*
X143358222Y-87416138D01*
X143057758Y-86825192D01*
X142980763Y-86709961D01*
X142520260Y-86423542D01*
X140297803Y-88646000D01*
X140118197Y-88646000D01*
X137895740Y-86423542D01*
X137435237Y-86709961D01*
X137110813Y-87288100D01*
X136905412Y-87918423D01*
X136826926Y-88576706D01*
X131533500Y-88576706D01*
X131533500Y-86333740D01*
X137985542Y-86333740D01*
X140208000Y-88556197D01*
X142430458Y-86333740D01*
X142144039Y-85873237D01*
X141565900Y-85548813D01*
X140935577Y-85343412D01*
X140277294Y-85264926D01*
X139616347Y-85316375D01*
X138978138Y-85495778D01*
X138387192Y-85796242D01*
X138271961Y-85873237D01*
X137985542Y-86333740D01*
X131533500Y-86333740D01*
X131533500Y-75956000D01*
X132436121Y-75956000D01*
X132436121Y-77226000D01*
X132449607Y-77362930D01*
X132489548Y-77494597D01*
X132554409Y-77615943D01*
X132641697Y-77722303D01*
X132748057Y-77809591D01*
X132806819Y-77841000D01*
X132748057Y-77872409D01*
X132641697Y-77959697D01*
X132554409Y-78066057D01*
X132489548Y-78187403D01*
X132449607Y-78319070D01*
X132436121Y-78456000D01*
X132436121Y-79726000D01*
X132449607Y-79862930D01*
X132489548Y-79994597D01*
X132554409Y-80115943D01*
X132641697Y-80222303D01*
X132748057Y-80309591D01*
X132869403Y-80374452D01*
X132923954Y-80391000D01*
X132869403Y-80407548D01*
X132748057Y-80472409D01*
X132641697Y-80559697D01*
X132554409Y-80666057D01*
X132489548Y-80787403D01*
X132449607Y-80919070D01*
X132436121Y-81056000D01*
X132436121Y-82326000D01*
X132449607Y-82462930D01*
X132489548Y-82594597D01*
X132554409Y-82715943D01*
X132641697Y-82822303D01*
X132748057Y-82909591D01*
X132869403Y-82974452D01*
X133001070Y-83014393D01*
X133138000Y-83027879D01*
X135357661Y-83027879D01*
X135585880Y-83180370D01*
X135897899Y-83309613D01*
X136229136Y-83375500D01*
X136566864Y-83375500D01*
X136898101Y-83309613D01*
X137210120Y-83180370D01*
X137490930Y-82992739D01*
X137729739Y-82753930D01*
X137917370Y-82473120D01*
X138046613Y-82161101D01*
X138090391Y-81941012D01*
X138204510Y-82017263D01*
X138486319Y-82133992D01*
X138785486Y-82193500D01*
X139090514Y-82193500D01*
X139389681Y-82133992D01*
X139671490Y-82017263D01*
X139925112Y-81847799D01*
X140140799Y-81632112D01*
X140218212Y-81516255D01*
X140457356Y-81575841D01*
X141388197Y-80645000D01*
X140457356Y-79714159D01*
X140218212Y-79773745D01*
X140140799Y-79657888D01*
X139925112Y-79442201D01*
X139824538Y-79375000D01*
X139925112Y-79307799D01*
X140140799Y-79092112D01*
X140208000Y-78991538D01*
X140275201Y-79092112D01*
X140490888Y-79307799D01*
X140606745Y-79385212D01*
X140547159Y-79624356D01*
X141478000Y-80555197D01*
X141492142Y-80541055D01*
X141581945Y-80630858D01*
X141567803Y-80645000D01*
X141581945Y-80659142D01*
X141492142Y-80748945D01*
X141478000Y-80734803D01*
X140547159Y-81665644D01*
X140615544Y-81940101D01*
X140884778Y-82083472D01*
X141176808Y-82171564D01*
X141480413Y-82200991D01*
X141783926Y-82170622D01*
X142075681Y-82081625D01*
X142323300Y-81949271D01*
X142327505Y-81993040D01*
X142424765Y-82316459D01*
X142583252Y-82614689D01*
X142587852Y-82621573D01*
X142879298Y-82709900D01*
X143928197Y-81661000D01*
X143914055Y-81646858D01*
X144003858Y-81557055D01*
X144018000Y-81571197D01*
X144032142Y-81557055D01*
X144036121Y-81561034D01*
X144036121Y-81760966D01*
X144032142Y-81764945D01*
X144018000Y-81750803D01*
X142969100Y-82799702D01*
X143057427Y-83091148D01*
X143354892Y-83251067D01*
X143677840Y-83349880D01*
X144013861Y-83383791D01*
X144350040Y-83351495D01*
X144673459Y-83254235D01*
X144971689Y-83095748D01*
X144978573Y-83091148D01*
X144997748Y-83027879D01*
X147278000Y-83027879D01*
X147414930Y-83014393D01*
X147546597Y-82974452D01*
X147667943Y-82909591D01*
X147774303Y-82822303D01*
X147861591Y-82715943D01*
X147926452Y-82594597D01*
X147966393Y-82462930D01*
X147979879Y-82326000D01*
X147979879Y-81056000D01*
X147966393Y-80919070D01*
X147926452Y-80787403D01*
X147861591Y-80666057D01*
X147774303Y-80559697D01*
X147667943Y-80472409D01*
X147546597Y-80407548D01*
X147492046Y-80391000D01*
X147546597Y-80374452D01*
X147667943Y-80309591D01*
X147774303Y-80222303D01*
X147861591Y-80115943D01*
X147926452Y-79994597D01*
X147966393Y-79862930D01*
X147979879Y-79726000D01*
X147979879Y-78456000D01*
X147966393Y-78319070D01*
X147926452Y-78187403D01*
X147861591Y-78066057D01*
X147774303Y-77959697D01*
X147667943Y-77872409D01*
X147609181Y-77841000D01*
X147667943Y-77809591D01*
X147774303Y-77722303D01*
X147861591Y-77615943D01*
X147926452Y-77494597D01*
X147966393Y-77362930D01*
X147979879Y-77226000D01*
X147979879Y-75956000D01*
X147966393Y-75819070D01*
X147926452Y-75687403D01*
X147861591Y-75566057D01*
X147774303Y-75459697D01*
X147667943Y-75372409D01*
X147546597Y-75307548D01*
X147414930Y-75267607D01*
X147278000Y-75254121D01*
X145115790Y-75254121D01*
X145110930Y-75249261D01*
X144830120Y-75061630D01*
X144518101Y-74932387D01*
X144186864Y-74866500D01*
X143849136Y-74866500D01*
X143517899Y-74932387D01*
X143205880Y-75061630D01*
X142985942Y-75208588D01*
X142966992Y-75113319D01*
X142850263Y-74831510D01*
X142680799Y-74577888D01*
X142465112Y-74362201D01*
X142211490Y-74192737D01*
X141929681Y-74076008D01*
X141630514Y-74016500D01*
X141325486Y-74016500D01*
X141026319Y-74076008D01*
X140744510Y-74192737D01*
X140490888Y-74362201D01*
X140359925Y-74493164D01*
X140329458Y-74436164D01*
X140211080Y-74291920D01*
X140066836Y-74173542D01*
X139902268Y-74085578D01*
X139723702Y-74031411D01*
X139538000Y-74013121D01*
X138338000Y-74013121D01*
X138152298Y-74031411D01*
X137973732Y-74085578D01*
X137809164Y-74173542D01*
X137664920Y-74291920D01*
X137546542Y-74436164D01*
X137458578Y-74600732D01*
X137404411Y-74779298D01*
X137386121Y-74965000D01*
X137386121Y-75179230D01*
X137210120Y-75061630D01*
X136898101Y-74932387D01*
X136566864Y-74866500D01*
X136229136Y-74866500D01*
X135897899Y-74932387D01*
X135585880Y-75061630D01*
X135305070Y-75249261D01*
X135300210Y-75254121D01*
X133138000Y-75254121D01*
X133001070Y-75267607D01*
X132869403Y-75307548D01*
X132748057Y-75372409D01*
X132641697Y-75459697D01*
X132554409Y-75566057D01*
X132489548Y-75687403D01*
X132449607Y-75819070D01*
X132436121Y-75956000D01*
X131533500Y-75956000D01*
X131533500Y-69876260D01*
X137985542Y-69876260D01*
X138271961Y-70336763D01*
X138850100Y-70661187D01*
X139480423Y-70866588D01*
X140138706Y-70945074D01*
X140799653Y-70893625D01*
X141437862Y-70714222D01*
X142028808Y-70413758D01*
X142144039Y-70336763D01*
X142430458Y-69876260D01*
X140208000Y-67653803D01*
X137985542Y-69876260D01*
X131533500Y-69876260D01*
X131533500Y-69162300D01*
X133439322Y-67494706D01*
X136826926Y-67494706D01*
X136878375Y-68155653D01*
X137057778Y-68793862D01*
X137358242Y-69384808D01*
X137435237Y-69500039D01*
X137895740Y-69786458D01*
X140118197Y-67564000D01*
X140297803Y-67564000D01*
X142520260Y-69786458D01*
X142980763Y-69500039D01*
X143305187Y-68921900D01*
X143510588Y-68291577D01*
X143589074Y-67633294D01*
X143537625Y-66972347D01*
X143358222Y-66334138D01*
X143057758Y-65743192D01*
X142980763Y-65627961D01*
X142520260Y-65341542D01*
X140297803Y-67564000D01*
X140118197Y-67564000D01*
X137895740Y-65341542D01*
X137435237Y-65627961D01*
X137110813Y-66206100D01*
X136905412Y-66836423D01*
X136826926Y-67494706D01*
X133439322Y-67494706D01*
X136161844Y-65112500D01*
X138072145Y-65112500D01*
X137985542Y-65251740D01*
G37*
%TD.AperFunction*%
%TD*%
M02*
